<svg xmlns="http://www.w3.org/2000/svg" width="470.446" height="97.304" viewBox="0 0 470.446 97.304">
  <g id="Group_5155" data-name="Group 5155" transform="translate(-6294 -4891)">
    <path id="Path_14033" data-name="Path 14033" d="M123.893,41.958V30.135a1.493,1.493,0,0,1,.516-1.239,1.833,1.833,0,0,1,1.242-.441h5.776a1.534,1.534,0,0,1,1.684,1.68V41.958h12.5a1.534,1.534,0,0,1,1.684,1.68v4.084a1.744,1.744,0,0,1-.516,1.313,1.594,1.594,0,0,1-1.241.514H133.111V65.016a7.956,7.956,0,0,0,1.094,4.6,4.048,4.048,0,0,0,3.577,1.533h8.481a1.7,1.7,0,0,1,1.241.514,1.586,1.586,0,0,1,.516,1.239V77.28a1.823,1.823,0,0,1-.442,1.239,1.5,1.5,0,0,1-1.242.515h-9.427c-4.314,0-7.607-1.092-9.722-3.36-2.189-2.257-3.22-5.544-3.22-9.923V49.56l-.074-7.592Z" transform="translate(6287.224 4887.146)"/>
    <path id="Path_14034" data-name="Path 14034" d="M156.721,75.075c-3.146-3.066-4.756-7.371-4.966-12.915l-.074-1.753.074-1.754c.221-5.4,1.9-9.628,5.04-12.768q4.719-4.6,12.5-4.6c5.629,0,9.943,1.68,13.015,5.1s4.609,7.949,4.609,13.639v1.459a1.59,1.59,0,0,1-.516,1.239,1.649,1.649,0,0,1-1.315.514H161.477v.588a10.716,10.716,0,0,0,2.189,6.563,6.827,6.827,0,0,0,5.629,2.7,8.3,8.3,0,0,0,6.8-3.286,6.375,6.375,0,0,1,1.02-1.019,2.57,2.57,0,0,1,1.168-.22h6.145a1.778,1.778,0,0,1,1.094.368,1.287,1.287,0,0,1,.442.945c0,1.165-.663,2.478-2.052,4.011a16.811,16.811,0,0,1-5.776,4.011,20.941,20.941,0,0,1-8.775,1.68c-5.335.074-9.575-1.459-12.647-4.525Zm20.455-17.818v-.221a10.6,10.6,0,0,0-2.115-6.783,7.228,7.228,0,0,0-5.85-2.551,7.079,7.079,0,0,0-5.777,2.551,10.3,10.3,0,0,0-2.052,6.783v.221Z" transform="translate(6287.224 4887.146)"/>
    <path id="Path_14035" data-name="Path 14035" d="M198.019,75.369c-3.146-2.919-4.756-6.93-4.966-12.033l-.074-2.845.074-2.846c.221-5.1,1.831-9.114,4.966-12.033s7.313-4.305,12.5-4.305a20.481,20.481,0,0,1,9.427,1.974,14.313,14.313,0,0,1,5.777,4.893,11.841,11.841,0,0,1,2.052,5.471,1.625,1.625,0,0,1-.442,1.239,1.706,1.706,0,0,1-1.242.514H219.8a1.951,1.951,0,0,1-1.094-.294,2.531,2.531,0,0,1-.726-1.092A8.562,8.562,0,0,0,215.128,50a7.7,7.7,0,0,0-4.462-1.239,7.332,7.332,0,0,0-5.7,2.331q-2.084,2.3-2.189,7l-.074,2.625.074,2.331c.221,6.206,2.851,9.334,7.891,9.334a7.942,7.942,0,0,0,4.535-1.239,8.115,8.115,0,0,0,2.778-4.011,3.665,3.665,0,0,1,.726-1.092,1.766,1.766,0,0,1,1.094-.294h6.292a1.706,1.706,0,0,1,1.242.515,1.328,1.328,0,0,1,.442,1.239,10.555,10.555,0,0,1-1.978,5.324,15.36,15.36,0,0,1-5.7,4.893,20,20,0,0,1-9.575,2.048q-7.892-.11-12.5-4.379" transform="translate(6287.224 4887.146)"/>
    <path id="Path_14036" data-name="Path 14036" d="M235.74,78.508a1.586,1.586,0,0,1-.516-1.239V30.135a1.49,1.49,0,0,1,.516-1.239,1.833,1.833,0,0,1,1.241-.441h6.355a1.534,1.534,0,0,1,1.684,1.68V46.326a14.225,14.225,0,0,1,11.553-5.1,13.431,13.431,0,0,1,10.458,4.305c2.631,2.846,3.946,6.783,3.946,11.676V77.2a1.823,1.823,0,0,1-.442,1.239,1.5,1.5,0,0,1-1.242.515h-6.428a1.759,1.759,0,0,1-1.758-1.754V57.718a9.351,9.351,0,0,0-2.051-6.489,7.445,7.445,0,0,0-5.85-2.331,7.885,7.885,0,0,0-6,2.331,9.061,9.061,0,0,0-2.188,6.489V77.27a1.828,1.828,0,0,1-.442,1.239,1.5,1.5,0,0,1-1.242.515h-6.355A2.361,2.361,0,0,1,235.74,78.508Z" transform="translate(6287.224 4887.146)"/>
    <path id="Path_14037" data-name="Path 14037" d="M280.478,52.972a11.057,11.057,0,0,1,11.037-11.014h13.668a1.534,1.534,0,0,1,1.684,1.68v4.084a1.747,1.747,0,0,1-.516,1.313,1.6,1.6,0,0,1-1.242.514H294.651a4.818,4.818,0,0,0-4.83,4.819V77.354a1.758,1.758,0,0,1-1.757,1.754h-5.85a1.759,1.759,0,0,1-1.757-1.754V52.983Z" transform="translate(6287.224 4887.146)" fill="#ff0500"/>
    <path id="Path_14038" data-name="Path 14038" d="M314.989,78.215a11.527,11.527,0,0,1-4.756-3.937,9.573,9.573,0,0,1,2.189-13.272,24.083,24.083,0,0,1,10.743-4.084l9.795-1.386V54.075a6.345,6.345,0,0,0-1.536-4.673c-1.02-1.029-2.7-1.533-5.04-1.533a7.365,7.365,0,0,0-3.8.872,12.842,12.842,0,0,0-2.336,1.753c-.589.588-.947,1.019-1.168,1.239-.221.588-.515.871-1.094.871h-5.482a1.477,1.477,0,0,1-1.094-.441A1.54,1.54,0,0,1,310.97,51a8.346,8.346,0,0,1,1.757-4.084,12.953,12.953,0,0,1,5.187-3.937,20.13,20.13,0,0,1,8.555-1.607c5.629,0,9.722,1.239,12.278,3.791a13.287,13.287,0,0,1,3.872,9.923V77.406a1.823,1.823,0,0,1-.442,1.239,1.5,1.5,0,0,1-1.241.515h-5.777a1.759,1.759,0,0,1-1.757-1.754V74.634a11.212,11.212,0,0,1-4.461,3.717,16.1,16.1,0,0,1-7.165,1.46,16.982,16.982,0,0,1-6.8-1.606Zm15.488-7.885c1.684-1.68,2.483-4.231,2.483-7.445V61.352L325.8,62.517a15.382,15.382,0,0,0-6.218,2.048,4.113,4.113,0,0,0-.211,7.066,8.156,8.156,0,0,0,4.609,1.313,8.406,8.406,0,0,0,6.5-2.625" transform="translate(6287.224 4887.146)" fill="#ff0500"/>
    <path id="Path_14039" data-name="Path 14039" d="M360.748,74.645V77.27a1.823,1.823,0,0,1-.442,1.239,1.5,1.5,0,0,1-1.241.515h-5.629a1.7,1.7,0,0,1-1.242-.515,1.589,1.589,0,0,1-.515-1.239V30.135a1.492,1.492,0,0,1,.515-1.239,1.833,1.833,0,0,1,1.242-.441h6.071a1.534,1.534,0,0,1,1.683,1.68V45.969c2.7-3.14,6.355-4.673,10.964-4.673s8.48,1.533,11.037,4.673,3.946,7.224,4.167,12.18a19.863,19.863,0,0,1,.073,2.258,20.5,20.5,0,0,1-.073,2.331c-.221,5.1-1.61,9.188-4.167,12.327-2.557,3.066-6.218,4.6-11.037,4.6q-7.354,0-11.406-5.029ZM377.709,62.6a15.736,15.736,0,0,0,.074-2.111,15.651,15.651,0,0,0-.074-2.111c-.368-6.279-3.072-9.482-8.186-9.482a7.483,7.483,0,0,0-6.071,2.552,10.264,10.264,0,0,0-2.262,6.058l-.073,2.7.073,2.772a11.7,11.7,0,0,0,2.189,6.489q1.973,2.63,6.144,2.625c5.114,0,7.892-3.14,8.186-9.482" transform="translate(6287.224 4887.146)" fill="#ff0500"/>
    <path id="Path_14040" data-name="Path 14040" d="M395.838,78.508a1.589,1.589,0,0,1-.515-1.239V43.785a1.7,1.7,0,0,1,.515-1.239,1.6,1.6,0,0,1,1.242-.514h5.776a1.756,1.756,0,0,1,1.316.514,1.643,1.643,0,0,1,.515,1.313v2.919a11.09,11.09,0,0,1,4.314-3.5,14.157,14.157,0,0,1,5.924-1.239h2.925a1.534,1.534,0,0,1,1.683,1.68v5.1a1.823,1.823,0,0,1-.442,1.239,1.5,1.5,0,0,1-1.241.514h-5.556a7.149,7.149,0,0,0-5.261,1.9,7.052,7.052,0,0,0-1.9,5.25V77.28a1.586,1.586,0,0,1-.516,1.239,1.649,1.649,0,0,1-1.315.515H397.08a2.364,2.364,0,0,1-1.242-.515" transform="translate(6287.224 4887.146)" fill="#ff0500"/>
    <path id="Path_14041" data-name="Path 14041" d="M425.3,35.4a1.589,1.589,0,0,1-.515-1.239v-5.1a1.7,1.7,0,0,1,.515-1.239,1.6,1.6,0,0,1,1.242-.515h6.5a1.757,1.757,0,0,1,1.757,1.753v5.1a1.7,1.7,0,0,1-.515,1.239,1.649,1.649,0,0,1-1.315.514h-6.5A2.127,2.127,0,0,1,425.3,35.4Zm.295,43.113a1.59,1.59,0,0,1-.516-1.239V43.711a1.7,1.7,0,0,1,.516-1.239,1.594,1.594,0,0,1,1.241-.514h5.924a1.534,1.534,0,0,1,1.684,1.68V77.2A1.828,1.828,0,0,1,434,78.435a1.5,1.5,0,0,1-1.242.515h-6A1.648,1.648,0,0,1,425.594,78.508Z" transform="translate(6287.224 4887.146)" fill="#ff0500"/>
    <path id="Path_14042" data-name="Path 14042" d="M447.447,75.369c-3.146-2.919-4.755-6.93-4.966-12.033l-.073-2.845.073-2.846c.221-5.1,1.831-9.114,4.966-12.033s7.313-4.305,12.5-4.305a20.488,20.488,0,0,1,9.428,1.974,14.3,14.3,0,0,1,5.776,4.893,11.819,11.819,0,0,1,2.052,5.471,1.618,1.618,0,0,1-.442,1.239,1.7,1.7,0,0,1-1.242.514h-6.292a1.951,1.951,0,0,1-1.094-.294,2.549,2.549,0,0,1-.726-1.092A8.556,8.556,0,0,0,464.556,50a7.7,7.7,0,0,0-4.461-1.239,7.334,7.334,0,0,0-5.7,2.331q-2.084,2.3-2.189,7l-.073,2.625.073,2.331c.221,6.206,2.852,9.334,7.892,9.334a7.939,7.939,0,0,0,4.534-1.239,8.115,8.115,0,0,0,2.778-4.011,3.684,3.684,0,0,1,.726-1.092,1.766,1.766,0,0,1,1.094-.294h6.292a1.7,1.7,0,0,1,1.242.515A1.326,1.326,0,0,1,477.2,67.5a10.555,10.555,0,0,1-1.978,5.324,15.36,15.36,0,0,1-5.7,4.893,19.994,19.994,0,0,1-9.575,2.048q-7.891-.11-12.5-4.379" transform="translate(6287.224 4887.146)" fill="#ff0500"/>
    <path id="Path_14043" data-name="Path 14043" d="M294.514,36.047H305.92a1.7,1.7,0,0,0,1.241-.514,1.644,1.644,0,0,0,.516-1.312V30.135a1.534,1.534,0,0,0-1.684-1.68H294.735c-7.165,0-11.553,2.552-13.236,7.592Z" transform="translate(6287.224 4887.146)" fill="#ff0500"/>
    <path id="Path_14044" data-name="Path 14044" d="M69.5,28.917a9.03,9.03,0,1,1,9.049-9.03A9.052,9.052,0,0,1,69.5,28.917Z" transform="translate(6287.224 4887.146)" fill="#ff0500"/>
    <path id="Path_14045" data-name="Path 14045" d="M69.5,47.639a6.331,6.331,0,0,1-6.124-4.694,6.277,6.277,0,0,1,.642-4.8A6.333,6.333,0,1,1,69.5,47.639Z" transform="translate(6287.224 4887.146)" fill="#ff0500"/>
    <path id="Path_14046" data-name="Path 14046" d="M33.122,94.132a9.03,9.03,0,1,1,9.049-9.03A9.052,9.052,0,0,1,33.122,94.132Z" transform="translate(6287.224 4887.146)"/>
    <path id="Path_14047" data-name="Path 14047" d="M33.112,70a6.331,6.331,0,0,1-6.124-4.694,6.277,6.277,0,0,1,.642-4.8A6.333,6.333,0,1,1,33.112,70Z" transform="translate(6287.224 4887.146)"/>
    <path id="Path_14048" data-name="Path 14048" d="M89.572,33.422a3.945,3.945,0,0,1-2-.546A3.9,3.9,0,0,1,86.2,27.521a3.938,3.938,0,0,1,5.377-1.365,3.9,3.9,0,0,1,1.368,5.355,3.954,3.954,0,0,1-3.367,1.911Z" transform="translate(6287.224 4887.146)" fill="#ff0500"/>
    <path id="Path_14049" data-name="Path 14049" d="M13.036,79.391a3.945,3.945,0,0,1-2-.546,3.9,3.9,0,0,1-1.8-2.394,3.845,3.845,0,0,1,.431-2.961,3.925,3.925,0,0,1,5.366-1.365,3.9,3.9,0,0,1,1.8,2.394,3.846,3.846,0,0,1-.431,2.961A3.954,3.954,0,0,1,13.036,79.391Z" transform="translate(6287.224 4887.146)"/>
    <path id="Path_14050" data-name="Path 14050" d="M15.825,61.53a9.03,9.03,0,1,1,9.049-9.03A9.052,9.052,0,0,1,15.825,61.53Z" transform="translate(6287.224 4887.146)"/>
    <path id="Path_14051" data-name="Path 14051" d="M33.122,28.917a9.03,9.03,0,1,1,9.049-9.03A9.052,9.052,0,0,1,33.122,28.917Z" transform="translate(6287.224 4887.146)"/>
    <path id="Path_14052" data-name="Path 14052" d="M33.112,47.639a6.32,6.32,0,1,1,5.482-3.15A6.373,6.373,0,0,1,33.112,47.639Z" transform="translate(6287.224 4887.146)"/>
    <path id="Path_14053" data-name="Path 14053" d="M13.036,33.422a3.945,3.945,0,0,1-2-.546,3.9,3.9,0,0,1-1.8-2.394,3.845,3.845,0,0,1,.431-2.961,3.938,3.938,0,0,1,5.377-1.365,3.9,3.9,0,0,1,1.8,2.394,3.846,3.846,0,0,1-.431,2.961,3.954,3.954,0,0,1-3.367,1.911Z" transform="translate(6287.224 4887.146)"/>
    <path id="Path_14054" data-name="Path 14054" d="M51.3,37.411a6.319,6.319,0,1,1,6.124-7.948,6.277,6.277,0,0,1-.642,4.8A6.356,6.356,0,0,1,51.3,37.411Z" transform="translate(6287.224 4887.146)" fill="#ff0500"/>
    <path id="Path_14055" data-name="Path 14055" d="M51.3,11.665a3.945,3.945,0,0,1-2-.546,3.9,3.9,0,0,1-1.368-5.355A3.925,3.925,0,0,1,53.3,4.4a3.9,3.9,0,0,1,1.8,2.394,3.845,3.845,0,0,1-.431,2.961,3.958,3.958,0,0,1-3.378,1.911Z" transform="translate(6287.224 4887.146)" fill="#ff0500"/>
    <path id="Path_14056" data-name="Path 14056" d="M86.783,61.53a9.03,9.03,0,1,1,9.049-9.03A9.052,9.052,0,0,1,86.783,61.53Z" transform="translate(6287.224 4887.146)" fill="#ff0500"/>
    <path id="Path_14057" data-name="Path 14057" d="M69.5,94.132a9.03,9.03,0,1,1,9.049-9.03A9.052,9.052,0,0,1,69.5,94.132Z" transform="translate(6287.224 4887.146)" fill="#ff0500"/>
    <path id="Path_14058" data-name="Path 14058" d="M69.5,70a6.331,6.331,0,0,1-6.124-4.694,6.277,6.277,0,0,1,.642-4.8A6.341,6.341,0,0,1,75.62,62.055a6.277,6.277,0,0,1-.642,4.8A6.356,6.356,0,0,1,69.5,70Z" transform="translate(6287.224 4887.146)" fill="#ff0500"/>
    <path id="Path_14059" data-name="Path 14059" d="M89.572,79.391a3.945,3.945,0,0,1-2-.546A3.9,3.9,0,0,1,86.2,73.49a3.938,3.938,0,0,1,5.377-1.365,3.9,3.9,0,0,1,1.8,2.394,3.845,3.845,0,0,1-.431,2.961,3.954,3.954,0,0,1-3.367,1.911Z" transform="translate(6287.224 4887.146)" fill="#ff0500"/>
    <path id="Path_14060" data-name="Path 14060" d="M51.3,80.23a6.331,6.331,0,0,1-6.124-4.693,6.277,6.277,0,0,1,.642-4.8,6.341,6.341,0,0,1,11.605,1.543,6.277,6.277,0,0,1-.642,4.8A6.356,6.356,0,0,1,51.3,80.23Z" transform="translate(6287.224 4887.146)"/>
    <path id="Path_14061" data-name="Path 14061" d="M51.3,101.157a3.945,3.945,0,0,1-2-.546,3.9,3.9,0,0,1-1.368-5.355,3.938,3.938,0,0,1,5.377-1.365,3.9,3.9,0,0,1,1.368,5.355A3.958,3.958,0,0,1,51.3,101.157Z" transform="translate(6287.224 4887.146)"/>
  </g>
</svg>
