<svg xmlns="http://www.w3.org/2000/svg" xmlns:xlink="http://www.w3.org/1999/xlink" width="90.153" height="80.494" viewBox="0 0 90.153 80.494">
  <defs>
    <linearGradient id="linear-gradient" x1="0.882" x2="0.069" y2="0.895" gradientUnits="objectBoundingBox">
      <stop offset="0" stop-color="#447ad2"/>
      <stop offset="1" stop-color="#8e3fd9"/>
    </linearGradient>
  </defs>
  <path id="Migration" d="M24.928,32.758C14.529,32.758,4,35.527,4,40.807A5.489,5.489,0,0,0,7.22,45.3c3.912,2.35,10.834,3.558,17.709,3.558s13.8-1.207,17.709-3.558a5.489,5.489,0,0,0,3.22-4.492C45.857,35.527,35.328,32.758,24.928,32.758Zm0,19.319c7.937,0,15.181-1.5,19.367-4.025a13.932,13.932,0,0,0,1.562-1.095v6.729a5.489,5.489,0,0,1-3.22,4.492c-3.912,2.35-10.834,3.558-17.709,3.558s-13.8-1.207-17.709-3.558A5.489,5.489,0,0,1,4,53.687V46.957a13.931,13.931,0,0,0,1.562,1.095C9.747,50.579,16.992,52.077,24.928,52.077Zm0,12.879c7.937,0,15.181-1.5,19.367-4.025a13.932,13.932,0,0,0,1.562-1.095v6.729a5.489,5.489,0,0,1-3.22,4.492c-3.912,2.35-10.834,3.558-17.709,3.558s-13.8-1.207-17.709-3.558A5.489,5.489,0,0,1,4,66.566V59.836a13.93,13.93,0,0,0,1.562,1.095C9.747,63.459,16.992,64.956,24.928,64.956Zm0,12.879c7.937,0,15.181-1.5,19.367-4.025a13.93,13.93,0,0,0,1.562-1.095v6.729c0,5.28-10.529,8.049-20.928,8.049S4,84.725,4,79.445V72.715A13.929,13.929,0,0,0,5.562,73.81C9.747,76.338,16.992,77.835,24.928,77.835Zm48.3-45.077c10.4,0,20.928,2.769,20.928,8.049a5.489,5.489,0,0,1-3.22,4.492c-3.912,2.35-10.834,3.558-17.709,3.558s-13.8-1.207-17.709-3.558a5.489,5.489,0,0,1-3.22-4.492C52.3,35.527,62.825,32.758,73.225,32.758Zm0,19.319c7.937,0,15.181-1.5,19.367-4.025a13.931,13.931,0,0,0,1.562-1.095v6.729a5.489,5.489,0,0,1-3.22,4.492c-3.912,2.35-10.834,3.558-17.709,3.558s-13.8-1.207-17.709-3.558a5.489,5.489,0,0,1-3.22-4.492V46.957a13.932,13.932,0,0,0,1.562,1.095C58.044,50.579,65.288,52.077,73.225,52.077Zm0,12.879c7.937,0,15.181-1.5,19.367-4.025a13.931,13.931,0,0,0,1.562-1.095v6.729a5.489,5.489,0,0,1-3.22,4.492c-3.912,2.35-10.834,3.558-17.709,3.558s-13.8-1.207-17.709-3.558a5.489,5.489,0,0,1-3.22-4.492V59.836a13.93,13.93,0,0,0,1.562,1.095C58.044,63.459,65.288,64.956,73.225,64.956Zm0,12.879c7.937,0,15.181-1.5,19.367-4.025a13.929,13.929,0,0,0,1.562-1.095v6.729c0,5.28-10.529,8.049-20.928,8.049S52.3,84.725,52.3,79.445V72.715a13.93,13.93,0,0,0,1.562,1.095C58.044,76.338,65.288,77.835,73.225,77.835Zm1.143-50.373a2.029,2.029,0,0,1-.515.338.6.6,0,0,1-.225.064,1.289,1.289,0,0,1-.8,0A.6.6,0,0,1,72.6,27.8a2.029,2.029,0,0,1-.515-.338l-6.44-6.44a1.616,1.616,0,1,1,2.286-2.286l3.687,3.7V11.83a1.615,1.615,0,0,0-1.61-1.61H28.148a1.615,1.615,0,0,0-1.61,1.61V26.319a1.61,1.61,0,0,1-3.22,0V11.83A4.844,4.844,0,0,1,28.148,7H70.005a4.844,4.844,0,0,1,4.83,4.83V22.439l3.687-3.7a1.616,1.616,0,1,1,2.286,2.286Z" transform="translate(-4 -7)" fill="url(#linear-gradient)"/>
</svg>
