<svg id="envelope_1_" data-name="envelope(1)" xmlns="http://www.w3.org/2000/svg" width="22.339" height="17" viewBox="0 0 22.339 17">
  <g id="Group_28" data-name="Group 28" transform="translate(0 0)">
    <path id="Path_39" data-name="Path 39" d="M19.611,57.75H2.732A2.734,2.734,0,0,0,0,60.482V72.018A2.734,2.734,0,0,0,2.732,74.75H19.607a2.734,2.734,0,0,0,2.732-2.732V60.486A2.731,2.731,0,0,0,19.611,57.75ZM21.1,72.018A1.485,1.485,0,0,1,19.611,73.5H2.732a1.485,1.485,0,0,1-1.484-1.484V60.486A1.485,1.485,0,0,1,2.732,59H19.607a1.485,1.485,0,0,1,1.484,1.484V72.018Z" transform="translate(0 -57.75)" fill="#fff"/>
    <path id="Path_40" data-name="Path 40" d="M67.264,114.895l5.463-4.9a.625.625,0,0,0-.837-.929l-7.534,6.762-1.47-1.313s-.009-.009-.009-.014a.925.925,0,0,0-.1-.088l-5.981-5.352a.625.625,0,1,0-.832.934l5.528,4.941-5.5,5.154a.627.627,0,0,0-.028.883.638.638,0,0,0,.458.2.625.625,0,0,0,.425-.166l5.588-5.228,1.516,1.354a.622.622,0,0,0,.832,0l1.558-1.4,5.556,5.278a.626.626,0,0,0,.883-.023.626.626,0,0,0-.023-.883Z" transform="translate(-53.175 -106.538)" fill="#fff"/>
  </g>
</svg>
