<svg xmlns="http://www.w3.org/2000/svg" width="440.993" height="444.769" viewBox="0 0 440.993 444.769">
  <path id="Exclusion_2" data-name="Exclusion 2" d="M220.819,442.088c-.063-.671-.666-6.84-2.3-16.623a375.358,375.358,0,0,0-9.22-40.77A296.66,296.66,0,0,0,189.7,333.588c-9.56-19.052-20.8-35.087-33.423-47.662s-28.628-23.779-47.584-33.305A295.881,295.881,0,0,0,57.952,233.1a371.092,371.092,0,0,0-40.371-9.188c-10.09-1.7-16.4-2.291-16.465-2.3.04,0,6.265-.578,16.465-2.3a371.1,371.1,0,0,0,40.371-9.188A295.883,295.883,0,0,0,108.7,190.6c18.955-9.526,34.965-20.731,47.584-33.305s23.864-28.809,33.423-48.254A304.3,304.3,0,0,0,209.3,56.636a394.541,394.541,0,0,0,9.22-42.073c1.705-10.545,2.3-17.179,2.305-17.245,0,.043.011,6.685.864,17.245a346.186,346.186,0,0,0,6.051,42.073,262.728,262.728,0,0,0,16.424,52.409c8.6,19.445,19.365,35.679,31.983,48.254s29.2,23.779,49.271,33.305a318.283,318.283,0,0,0,54.457,19.524,427.04,427.04,0,0,0,44.085,9.188c11.077,1.7,18.083,2.291,18.152,2.3-.044,0-6.951.58-18.152,2.3a427.035,427.035,0,0,0-44.085,9.188,318.283,318.283,0,0,0-54.457,19.524c-20.075,9.526-36.652,20.731-49.271,33.305s-23.38,28.61-31.983,47.662a254.569,254.569,0,0,0-16.424,51.107,327.371,327.371,0,0,0-6.051,40.77c-.818,9.779-.862,15.951-.864,16.623ZM173.7,221.611l.019,0a76.357,76.357,0,0,1,12.242,2.446,63.681,63.681,0,0,1,10.924,4.159,35.533,35.533,0,0,1,17.307,17.245,63.185,63.185,0,0,1,4.173,10.885,74.694,74.694,0,0,1,2.453,12.205s0,0,0,0a66.151,66.151,0,0,1,1.475-12.2,54.224,54.224,0,0,1,3.5-10.885,33.911,33.911,0,0,1,6.812-10.152,37.622,37.622,0,0,1,10.494-7.094,67.788,67.788,0,0,1,11.6-4.159,85.847,85.847,0,0,1,13.242-2.445l-.021,0a86.971,86.971,0,0,1-13.221-2.446,67.791,67.791,0,0,1-11.6-4.159,37.623,37.623,0,0,1-10.494-7.094,33.911,33.911,0,0,1-6.812-10.151,54.216,54.216,0,0,1-3.5-10.885,65.233,65.233,0,0,1-1.473-12.23h0a74.3,74.3,0,0,1-2.455,12.23,63.178,63.178,0,0,1-4.173,10.885,35.534,35.534,0,0,1-17.307,17.245,63.681,63.681,0,0,1-10.924,4.159A75.3,75.3,0,0,1,173.7,221.611Z" transform="translate(-1.116 2.681)" fill="#fff" opacity="0.114" style="mix-blend-mode: overlay;isolation: isolate"/>
</svg>
