<svg xmlns="http://www.w3.org/2000/svg" width="1082.993" height="1094.769" viewBox="0 0 1082.993 1094.769">
  <path id="Exclusion_5" data-name="Exclusion 5" d="M540.663,1092.088c-.155-1.652-1.636-16.837-5.654-40.917a925.743,925.743,0,0,0-22.643-100.354c-13.147-45.957-29.336-88.28-48.117-125.8-23.477-46.895-51.093-86.365-82.081-117.316s-70.305-58.531-116.856-81.979c-37.24-18.757-79.167-34.926-124.618-48.057A909.551,909.551,0,0,0,41.55,555.056c-24.778-4.184-40.28-5.64-40.434-5.654.1-.011,15.384-1.424,40.434-5.654a909.554,909.554,0,0,0,99.144-22.615c45.45-13.131,87.378-29.3,124.618-48.057,46.551-23.447,85.867-51.029,116.856-81.978s58.6-70.911,82.081-118.773c18.781-38.289,34.97-81.691,48.117-129A973.062,973.062,0,0,0,535.008,39.765c4.188-25.957,5.647-42.285,5.661-42.447,0,.106.026,16.455,2.123,42.447a853.955,853.955,0,0,0,14.86,103.559c9.86,47.31,23.431,90.712,40.334,129,21.129,47.862,47.556,87.822,78.545,118.773s71.7,58.531,121,81.978c39.44,18.757,84.436,34.926,133.737,48.057a1046.617,1046.617,0,0,0,108.263,22.615c27.2,4.18,44.408,5.64,44.579,5.654-.108.012-17.07,1.427-44.579,5.654a1046.614,1046.614,0,0,0-108.263,22.615c-49.3,13.131-94.3,29.3-133.737,48.057-49.3,23.447-90.01,51.029-121,81.979s-57.416,70.421-78.545,117.316c-16.9,37.516-30.474,79.839-40.334,125.8a807.537,807.537,0,0,0-14.86,100.354c-2.008,24.07-2.117,39.263-2.123,40.917ZM424.952,549.4l.047,0a187.134,187.134,0,0,1,30.064,6.02A156.167,156.167,0,0,1,481.89,565.66a87.362,87.362,0,0,1,42.5,42.448A155.743,155.743,0,0,1,534.641,634.9a184.235,184.235,0,0,1,6.023,30.042s0-.006,0-.008a163.187,163.187,0,0,1,3.623-30.034,133.688,133.688,0,0,1,8.591-26.794,83.479,83.479,0,0,1,16.73-24.987c6.6-6.592,15.272-12.467,25.772-17.461a166.227,166.227,0,0,1,28.485-10.236,210.384,210.384,0,0,1,32.52-6.018l-.051,0a213.136,213.136,0,0,1-32.469-6.02,166.232,166.232,0,0,1-28.485-10.236c-10.5-4.994-19.172-10.869-25.772-17.461a83.479,83.479,0,0,1-16.73-24.987,133.667,133.667,0,0,1-8.591-26.792,160.923,160.923,0,0,1-3.617-30.1h0a183.267,183.267,0,0,1-6.029,30.1A155.728,155.728,0,0,1,524.392,490.7a87.364,87.364,0,0,1-42.5,42.448,156.166,156.166,0,0,1-26.827,10.236A184.531,184.531,0,0,1,424.952,549.4Z" transform="translate(-1.116 2.681)" fill="#082038" opacity="0.101" style="mix-blend-mode: overlay;isolation: isolate"/>
</svg>
