<svg xmlns="http://www.w3.org/2000/svg" xmlns:xlink="http://www.w3.org/1999/xlink" width="167.801" height="46.96" viewBox="0 0 167.801 46.96">
  <defs>
    <linearGradient id="linear-gradient" x1="0.152" y1="0.202" x2="1.431" y2="1.294" gradientUnits="objectBoundingBox">
      <stop offset="0" stop-color="#791aab"/>
      <stop offset="0.349" stop-color="#280f55"/>
      <stop offset="0.659" stop-color="#08077c"/>
      <stop offset="1" stop-color="#040212"/>
    </linearGradient>
  </defs>
  <g id="Nebulaa_Logo_Original_" data-name="Nebulaa Logo (Original)" transform="translate(23738 3395.636)">
    <path id="Path_13030" data-name="Path 13030" d="M21.984.314l-3.091,12.4a8.643,8.643,0,0,1-6.26,6.3L.31,22.132a.416.416,0,0,0,0,.806L12.633,26.05a8.643,8.643,0,0,1,6.26,6.3l3.091,12.4a.412.412,0,0,0,.8,0l3.09-12.4a8.643,8.643,0,0,1,6.26-6.3l12.323-3.111a.416.416,0,0,0,0-.806L32.136,19.021a8.643,8.643,0,0,1-6.26-6.3L22.785.314a.412.412,0,0,0-.8,0Z" transform="translate(-23737.998 -3395.636)" fill-rule="evenodd" fill="url(#linear-gradient)"/>
    <path id="Path_13031" data-name="Path 13031" d="M1004.507,1000.284l.534,2.129a1.772,1.772,0,0,0,1.288,1.288l2.129.534a.151.151,0,0,1,0,.293l-2.129.534a1.771,1.771,0,0,0-1.288,1.288l-.534,2.129a.151.151,0,0,1-.292,0l-.534-2.129a1.773,1.773,0,0,0-1.288-1.288l-2.129-.534a.151.151,0,0,1,0-.293l2.129-.534a1.773,1.773,0,0,0,1.288-1.288l.534-2.129A.151.151,0,0,1,1004.507,1000.284Z" transform="translate(-24719.973 -4377.488)" fill="#fff"/>
    <path id="Path_13032" data-name="Path 13032" d="M2855.4,392.048a1.289,1.289,0,0,1-.408.968,1.323,1.323,0,0,1-.968.408h-.046a1.324,1.324,0,0,1-.968-.408,1.291,1.291,0,0,1-.407-.968V378.081a4.572,4.572,0,1,0-9.145,0v13.966a1.29,1.29,0,0,1-.408.968,1.323,1.323,0,0,1-.967.408h-.045a1.323,1.323,0,0,1-.968-.408,1.289,1.289,0,0,1-.408-.968V378.081a7.369,7.369,0,1,1,14.737,0v13.966Z" transform="translate(-26526.695 -3758.847)" fill="#743d74"/>
    <path id="Path_13033" data-name="Path 13033" d="M3809.563,714.556a5.467,5.467,0,0,0-5.4,6.273l9.568-4.323A5.2,5.2,0,0,0,3809.563,714.556Zm7.5,2a1.362,1.362,0,0,1-.68,1.829q-2.116.953-5.562,2.509l-5.547,2.509a5.19,5.19,0,0,0,4.293,2.086,5.462,5.462,0,0,0,5.155-3.673,1.3,1.3,0,0,1,1.33-.937,1.328,1.328,0,0,1,1.134.59,1.3,1.3,0,0,1,.166,1.255,7.947,7.947,0,0,1-2.962,3.96,8.057,8.057,0,0,1-4.822,1.557,8.253,8.253,0,1,1,4.5-15.161A8.072,8.072,0,0,1,3817.06,716.552Z" transform="translate(-27469.768 -4094.304)" fill="#743d74"/>
    <path id="Path_13034" data-name="Path 13034" d="M4846.693,379.734a5.471,5.471,0,1,0,3.854,1.6A5.222,5.222,0,0,0,4846.693,379.734Zm-6.832-9.024a1.368,1.368,0,0,1,1.375,1.376v6.892a8.239,8.239,0,1,1-2.8,6.228v-13.12a1.368,1.368,0,0,1,1.376-1.376h.045Z" transform="translate(-28487.926 -3758.838)" fill="#743d74"/>
    <path id="Path_13035" data-name="Path 13035" d="M5890.866,721.389a4.058,4.058,0,1,0,8.116,0v-8.268a1.394,1.394,0,0,1,1.391-1.391h.029a1.289,1.289,0,0,1,.968.408,1.337,1.337,0,0,1,.409.983v8.268a6.855,6.855,0,0,1-13.71,0v-8.268a1.342,1.342,0,0,1,.408-.983,1.32,1.32,0,0,1,.967-.408h.046a1.323,1.323,0,0,1,.967.408,1.34,1.34,0,0,1,.408.983v8.268Z" transform="translate(-29518.365 -4094.304)" fill="#743d74"/>
    <path id="Path_13036" data-name="Path 13036" d="M6843.491,370.72a1.367,1.367,0,0,1,1.375,1.376v19.952a1.289,1.289,0,0,1-.408.968,1.321,1.321,0,0,1-.967.408h-.045a1.324,1.324,0,0,1-.968-.408,1.29,1.29,0,0,1-.408-.968V372.1a1.367,1.367,0,0,1,1.375-1.376Z" transform="translate(-30454.969 -3758.847)" fill="#743d74"/>
    <path id="Path_13037" data-name="Path 13037" d="M7199.943,716.119a5.464,5.464,0,1,0,7.724,0,5.455,5.455,0,0,0-7.724,0Zm9.7-1.98a7.954,7.954,0,0,1,2.418,5.835v6.877a1.289,1.289,0,0,1-.408.968,1.32,1.32,0,0,1-.967.408h-.045a1.322,1.322,0,0,1-.967-.408,1.29,1.29,0,0,1-.408-.968v-.7a8.249,8.249,0,1,1,.378-12.017Z" transform="translate(-30801.793 -4094.294)" fill="#743d74"/>
    <path id="Path_13038" data-name="Path 13038" d="M8274.5,716.119a5.465,5.465,0,1,0,7.723,0,5.454,5.454,0,0,0-7.723,0Zm9.7-1.98a7.952,7.952,0,0,1,2.418,5.835v6.877a1.29,1.29,0,0,1-.406.968,1.328,1.328,0,0,1-.968.408h-.047a1.328,1.328,0,0,1-.968-.408,1.294,1.294,0,0,1-.406-.968v-.7a8.25,8.25,0,1,1,.377-12.017Z" transform="translate(-31856.824 -4094.294)" fill="#743d74"/>
    <path id="Path_13039" data-name="Path 13039" d="M2886.663,1993.74a.628.628,0,0,1,.632.632v9.166a.593.593,0,0,1-.187.444.607.607,0,0,1-.444.188h-.021a.607.607,0,0,1-.444-.187.594.594,0,0,1-.187-.444v-9.166a.628.628,0,0,1,.632-.632Z" transform="translate(-26571.242 -5352.846)" fill="#3e1968"/>
    <path id="Path_13040" data-name="Path 13040" d="M3190.637,1994.386a.614.614,0,0,1-.187.451.6.6,0,0,1-.445.181h-1.9v8.52a.6.6,0,0,1-.181.445.615.615,0,0,1-.451.187h-.014a.616.616,0,0,1-.451-.187.606.606,0,0,1-.18-.445v-8.52h-1.9a.629.629,0,0,1-.632-.632v-.014a.628.628,0,0,1,.632-.632h5.083a.6.6,0,0,1,.444.18.614.614,0,0,1,.187.451v.014Z" transform="translate(-26864.061 -5352.846)" fill="#3e1968"/>
    <path id="Path_13041" data-name="Path 13041" d="M4106.8,1992.755a1.634,1.634,0,0,0-1.638,1.639,1.37,1.37,0,0,0,.75,1.257,11.3,11.3,0,0,0,1.722.583,4.359,4.359,0,0,1,1.653.806,2.482,2.482,0,0,1,.75,1.938,2.951,2.951,0,0,1-2.944,2.944h-2.646a.64.64,0,0,1-.632-.632v-.042a.64.64,0,0,1,.632-.632h2.715a1.636,1.636,0,0,0,1.639-1.639,1.4,1.4,0,0,0-.75-1.264,10.944,10.944,0,0,0-1.722-.632,4.681,4.681,0,0,1-1.653-.833,2.367,2.367,0,0,1-.75-1.854,2.939,2.939,0,0,1,2.944-2.944h1.868a.611.611,0,0,1,.451.187.6.6,0,0,1,.181.444v.042a.618.618,0,0,1-.181.444.611.611,0,0,1-.451.188H4106.8Z" transform="translate(-27766.775 -5350.598)" fill="#3e1968"/>
    <path id="Path_13042" data-name="Path 13042" d="M4664.768,1996.181a3.931,3.931,0,1,0,2.777-1.153A3.791,3.791,0,0,0,4664.768,1996.181Zm6.472-.9a5.222,5.222,0,1,1-3.694-1.528A5.025,5.025,0,0,1,4671.24,1995.278Z" transform="translate(-28315.063 -5352.856)" fill="#3e1968"/>
    <path id="Path_13043" data-name="Path 13043" d="M5473.154,2001.824a1.042,1.042,0,0,0,1.042,1.042h2.021a.639.639,0,0,1,.639.639v.014a.594.594,0,0,1-.187.444.617.617,0,0,1-.452.187H5474.2a2.323,2.323,0,0,1-2.326-2.326v-7.472a.628.628,0,0,1,.632-.632h.021a.628.628,0,0,1,.631.632Z" transform="translate(-29109.813 -5352.827)" fill="#3e1968"/>
    <path id="Path_13044" data-name="Path 13044" d="M5957.691,2000.788a3.385,3.385,0,0,1-6.771,0v-6.416a.628.628,0,0,1,.631-.632h.021a.629.629,0,0,1,.632.632v6.416a2.1,2.1,0,1,0,4.2,0v-6.416a.629.629,0,0,1,.631-.632h.021a.629.629,0,0,1,.632.632v6.416Z" transform="translate(-29580.098 -5352.846)" fill="#3e1968"/>
    <path id="Path_13045" data-name="Path 13045" d="M6545.947,1994.386a.616.616,0,0,1-.187.451.6.6,0,0,1-.445.181h-1.9v8.52a.606.606,0,0,1-.181.445.614.614,0,0,1-.451.187h-.014a.613.613,0,0,1-.451-.187.6.6,0,0,1-.181-.445v-8.52h-1.9a.628.628,0,0,1-.632-.632v-.014a.615.615,0,0,1,.187-.451.623.623,0,0,1,.445-.18h5.082a.607.607,0,0,1,.445.18.618.618,0,0,1,.188.451Z" transform="translate(-30158.016 -5352.846)" fill="#3e1968"/>
    <path id="Path_13046" data-name="Path 13046" d="M7117.113,1993.74a.628.628,0,0,1,.632.632v9.166a.59.59,0,0,1-.187.444.606.606,0,0,1-.445.188h-.02a.609.609,0,0,1-.445-.187.591.591,0,0,1-.187-.444v-9.166a.614.614,0,0,1,.187-.451.621.621,0,0,1,.445-.18Z" transform="translate(-30724.352 -5352.846)" fill="#3e1968"/>
    <path id="Path_13047" data-name="Path 13047" d="M7432.478,1996.181a3.93,3.93,0,1,0,2.777-1.153A3.792,3.792,0,0,0,7432.478,1996.181Zm6.472-.9a5.222,5.222,0,1,1-3.694-1.528A5.024,5.024,0,0,1,7438.949,1995.278Z" transform="translate(-31032.014 -5352.856)" fill="#3e1968"/>
    <path id="Path_13048" data-name="Path 13048" d="M8242.561,2003.528a.59.59,0,0,1-.188.444.6.6,0,0,1-.444.188h-.02a.605.605,0,0,1-.444-.187.593.593,0,0,1-.188-.444v-6.416a2.1,2.1,0,1,0-4.2,0v6.416a.59.59,0,0,1-.188.444.6.6,0,0,1-.444.188h-.02a.6.6,0,0,1-.444-.187.59.59,0,0,1-.188-.444v-6.416a3.385,3.385,0,0,1,6.771,0Z" transform="translate(-31823.121 -5352.835)" fill="#3e1968"/>
    <path id="Path_13049" data-name="Path 13049" d="M8838.906,1992.755a1.634,1.634,0,0,0-1.638,1.639,1.369,1.369,0,0,0,.749,1.257,11.288,11.288,0,0,0,1.722.583,4.358,4.358,0,0,1,1.653.806,2.482,2.482,0,0,1,.75,1.938,2.95,2.95,0,0,1-2.944,2.944h-2.646a.64.64,0,0,1-.632-.632v-.042a.64.64,0,0,1,.632-.632h2.715a1.639,1.639,0,0,0,1.639-1.639,1.4,1.4,0,0,0-.75-1.264,10.958,10.958,0,0,0-1.723-.632,4.687,4.687,0,0,1-1.652-.833,2.365,2.365,0,0,1-.75-1.854,2.94,2.94,0,0,1,2.944-2.944h1.868a.615.615,0,0,1,.451.187.6.6,0,0,1,.181.444v.042a.628.628,0,0,1-.632.632h-1.937Z" transform="translate(-32412.344 -5350.598)" fill="#3e1968"/>
  </g>
</svg>
