<svg xmlns="http://www.w3.org/2000/svg" xmlns:xlink="http://www.w3.org/1999/xlink" width="167.805" height="46.965" viewBox="0 0 167.805 46.965">
  <defs>
    <linearGradient id="linear-gradient" x1="0.152" y1="0.202" x2="1.431" y2="1.294" gradientUnits="objectBoundingBox">
      <stop offset="0" stop-color="#fff"/>
      <stop offset="0.349" stop-color="#fff"/>
      <stop offset="0.659" stop-color="#fff"/>
      <stop offset="1" stop-color="#fff"/>
    </linearGradient>
  </defs>
  <g id="Nebulaa_Logo_White_" data-name="Nebulaa Logo (White)" transform="translate(23738 3395.636)">
    <path id="Path_13030" data-name="Path 13030" d="M22.125.314l-3.11,12.4a8.67,8.67,0,0,1-6.3,6.3L.312,22.129a.416.416,0,0,0,0,.806l12.4,3.111a8.67,8.67,0,0,1,6.3,6.3l3.11,12.4a.416.416,0,0,0,.806,0l3.11-12.4a8.67,8.67,0,0,1,6.3-6.3l12.4-3.111a.415.415,0,0,0,0-.806l-12.4-3.111a8.67,8.67,0,0,1-6.3-6.3L22.932.314a.416.416,0,0,0-.806,0Z" transform="translate(-23737.998 -3395.636)" fill-rule="evenodd" fill="url(#linear-gradient)"/>
    <path id="Path_13031" data-name="Path 13031" d="M1004.535,1000.285l.538,2.143a1.783,1.783,0,0,0,1.3,1.3l2.142.537a.152.152,0,0,1,0,.294l-2.142.537a1.783,1.783,0,0,0-1.3,1.3l-.538,2.143a.152.152,0,0,1-.294,0l-.537-2.143a1.784,1.784,0,0,0-1.3-1.3l-2.143-.537a.152.152,0,0,1,0-.294l2.143-.537a1.784,1.784,0,0,0,1.3-1.3l.537-2.143A.152.152,0,0,1,1004.535,1000.285Z" transform="translate(-24719.857 -4377.512)" fill="#240e59"/>
    <path id="Path_13032" data-name="Path 13032" d="M2855.493,392.184a1.3,1.3,0,0,1-.41.974,1.332,1.332,0,0,1-.974.411h-.045a1.332,1.332,0,0,1-.974-.411,1.3,1.3,0,0,1-.411-.974V378.128a4.6,4.6,0,1,0-9.2,0v14.056a1.3,1.3,0,0,1-.411.974,1.331,1.331,0,0,1-.973.411h-.046a1.332,1.332,0,0,1-.974-.411,1.3,1.3,0,0,1-.411-.974V378.128a7.416,7.416,0,1,1,14.832,0v14.056Z" transform="translate(-26526.729 -3759.575)" fill="url(#linear-gradient)"/>
    <path id="Path_13033" data-name="Path 13033" d="M3809.615,714.575a5.5,5.5,0,0,0-5.431,6.313l9.629-4.351a5.232,5.232,0,0,0-4.2-1.963Zm7.545,2.008a1.372,1.372,0,0,1-.685,1.841q-2.13.959-5.6,2.525l-5.583,2.525a5.223,5.223,0,0,0,4.321,2.1,5.5,5.5,0,0,0,5.188-3.7,1.3,1.3,0,0,1,1.339-.943,1.337,1.337,0,0,1,1.141.593,1.308,1.308,0,0,1,.167,1.263,8,8,0,0,1-2.982,3.986,8.106,8.106,0,0,1-4.853,1.567,8.306,8.306,0,1,1,4.533-15.258A8.125,8.125,0,0,1,3817.161,716.582Z" transform="translate(-27469.814 -4094.347)" fill="url(#linear-gradient)"/>
    <path id="Path_13034" data-name="Path 13034" d="M4846.746,379.792a5.5,5.5,0,1,0,3.879,1.613A5.306,5.306,0,0,0,4846.746,379.792Zm-6.876-9.082a1.375,1.375,0,0,1,1.384,1.384v6.937a8.292,8.292,0,1,1-2.814,6.267v-13.2a1.376,1.376,0,0,1,1.385-1.384h.045Z" transform="translate(-28487.986 -3759.566)" fill="url(#linear-gradient)"/>
    <path id="Path_13035" data-name="Path 13035" d="M5890.884,721.451a4.084,4.084,0,1,0,8.168,0V713.13a1.4,1.4,0,0,1,1.4-1.4h.03a1.3,1.3,0,0,1,.974.411,1.348,1.348,0,0,1,.411.989v8.321a6.9,6.9,0,0,1-13.8,0V713.13a1.35,1.35,0,0,1,.411-.989,1.332,1.332,0,0,1,.974-.411h.046a1.332,1.332,0,0,1,.974.411,1.35,1.35,0,0,1,.411.989v8.321Z" transform="translate(-29518.426 -4094.347)" fill="url(#linear-gradient)"/>
    <path id="Path_13036" data-name="Path 13036" d="M6843.5,370.72a1.376,1.376,0,0,1,1.384,1.384v20.08a1.3,1.3,0,0,1-.41.974,1.33,1.33,0,0,1-.974.411h-.045a1.329,1.329,0,0,1-.974-.411,1.3,1.3,0,0,1-.411-.974V372.1a1.377,1.377,0,0,1,1.385-1.384Z" transform="translate(-30454.98 -3759.575)" fill="url(#linear-gradient)"/>
    <path id="Path_13037" data-name="Path 13037" d="M7199.971,716.147a5.5,5.5,0,1,0,7.773,0,5.49,5.49,0,0,0-7.773,0Zm9.766-1.993a8,8,0,0,1,2.434,5.872v6.921a1.3,1.3,0,0,1-.411.974,1.329,1.329,0,0,1-.973.411h-.046a1.33,1.33,0,0,1-.973-.411,1.3,1.3,0,0,1-.411-.974v-.7a8.3,8.3,0,1,1,.38-12.094Z" transform="translate(-30802.021 -4094.338)" fill="url(#linear-gradient)"/>
    <path id="Path_13038" data-name="Path 13038" d="M8274.531,716.147a5.5,5.5,0,1,0,7.774,0,5.491,5.491,0,0,0-7.774,0Zm9.767-1.993a8.006,8.006,0,0,1,2.435,5.872v6.921a1.3,1.3,0,0,1-.41.974,1.336,1.336,0,0,1-.975.411h-.046a1.331,1.331,0,0,1-.974-.411,1.3,1.3,0,0,1-.41-.974v-.7a8.3,8.3,0,1,1,.38-12.094Z" transform="translate(-31856.928 -4094.338)" fill="url(#linear-gradient)"/>
    <path id="Path_13039" data-name="Path 13039" d="M2886.667,1993.74a.631.631,0,0,1,.635.636v9.225a.6.6,0,0,1-.188.447.61.61,0,0,1-.447.189h-.021a.61.61,0,0,1-.447-.189.6.6,0,0,1-.188-.447v-9.225a.632.632,0,0,1,.636-.636Z" transform="translate(-26571.246 -5352.908)" fill="url(#linear-gradient)"/>
    <path id="Path_13040" data-name="Path 13040" d="M3190.678,1994.39a.617.617,0,0,1-.188.454.607.607,0,0,1-.447.182h-1.915v8.574a.609.609,0,0,1-.182.448.621.621,0,0,1-.454.188h-.014a.621.621,0,0,1-.454-.188.61.61,0,0,1-.182-.448v-8.574h-1.915a.633.633,0,0,1-.636-.636v-.014a.633.633,0,0,1,.636-.636h5.115a.609.609,0,0,1,.447.182.618.618,0,0,1,.188.454v.014Z" transform="translate(-26864.074 -5352.908)" fill="url(#linear-gradient)"/>
    <path id="Path_13041" data-name="Path 13041" d="M4106.824,1992.764a1.645,1.645,0,0,0-1.649,1.649,1.379,1.379,0,0,0,.754,1.265,11.378,11.378,0,0,0,1.733.587,4.376,4.376,0,0,1,1.663.811,2.5,2.5,0,0,1,.755,1.95,2.971,2.971,0,0,1-2.963,2.963h-2.663a.645.645,0,0,1-.636-.636v-.042a.645.645,0,0,1,.636-.636h2.732a1.648,1.648,0,0,0,1.65-1.649,1.414,1.414,0,0,0-.755-1.272,11.02,11.02,0,0,0-1.732-.636,4.721,4.721,0,0,1-1.664-.839,2.383,2.383,0,0,1-.754-1.866,2.959,2.959,0,0,1,2.963-2.963h1.879a.618.618,0,0,1,.454.189.609.609,0,0,1,.182.447v.042a.633.633,0,0,1-.636.636h-1.949Z" transform="translate(-27766.791 -5350.66)" fill="url(#linear-gradient)"/>
    <path id="Path_13042" data-name="Path 13042" d="M4664.784,1996.2a3.957,3.957,0,1,0,2.8-1.16A3.816,3.816,0,0,0,4664.784,1996.2Zm6.513-.909a5.256,5.256,0,1,1-3.718-1.537A5.058,5.058,0,0,1,4671.3,1995.287Z" transform="translate(-28315.094 -5352.918)" fill="url(#linear-gradient)"/>
    <path id="Path_13043" data-name="Path 13043" d="M5473.162,2001.876a1.05,1.05,0,0,0,1.048,1.048h2.034a.644.644,0,0,1,.643.643v.014a.6.6,0,0,1-.188.447.62.62,0,0,1-.454.189h-2.034a2.339,2.339,0,0,1-2.341-2.341v-7.52a.633.633,0,0,1,.635-.636h.022a.632.632,0,0,1,.635.636v7.52Z" transform="translate(-29109.832 -5352.889)" fill="url(#linear-gradient)"/>
    <path id="Path_13044" data-name="Path 13044" d="M5957.734,2000.833a3.407,3.407,0,0,1-6.813,0v-6.457a.631.631,0,0,1,.636-.636h.021a.633.633,0,0,1,.636.636v6.457a2.114,2.114,0,1,0,4.228,0v-6.457a.632.632,0,0,1,.636-.636h.021a.632.632,0,0,1,.636.636Z" transform="translate(-29580.127 -5352.908)" fill="url(#linear-gradient)"/>
    <path id="Path_13045" data-name="Path 13045" d="M6545.988,1994.39a.619.619,0,0,1-.188.454.609.609,0,0,1-.447.182h-1.916v8.574a.608.608,0,0,1-.181.448.619.619,0,0,1-.455.188h-.014a.62.62,0,0,1-.455-.188.608.608,0,0,1-.181-.448v-8.574h-1.915a.633.633,0,0,1-.636-.636v-.014a.618.618,0,0,1,.188-.454.625.625,0,0,1,.447-.182h5.116a.611.611,0,0,1,.447.182.62.62,0,0,1,.188.454Z" transform="translate(-30158.043 -5352.908)" fill="url(#linear-gradient)"/>
    <path id="Path_13046" data-name="Path 13046" d="M7117.117,1993.74a.632.632,0,0,1,.637.636v9.225a.6.6,0,0,1-.189.447.61.61,0,0,1-.448.189h-.021a.61.61,0,0,1-.447-.189.6.6,0,0,1-.188-.447v-9.225a.632.632,0,0,1,.636-.636Z" transform="translate(-30724.355 -5352.908)" fill="url(#linear-gradient)"/>
    <path id="Path_13047" data-name="Path 13047" d="M7432.494,1996.2a3.956,3.956,0,1,0,2.8-1.16A3.818,3.818,0,0,0,7432.494,1996.2Zm6.514-.909a5.256,5.256,0,1,1-3.718-1.537A5.059,5.059,0,0,1,7439.007,1995.287Z" transform="translate(-31032.215 -5352.918)" fill="url(#linear-gradient)"/>
    <path id="Path_13048" data-name="Path 13048" d="M8242.6,2003.591a.6.6,0,0,1-.188.447.615.615,0,0,1-.448.188h-.021a.612.612,0,0,1-.447-.188.6.6,0,0,1-.188-.447v-6.457a2.114,2.114,0,1,0-4.229,0v6.457a.6.6,0,0,1-.188.447.611.611,0,0,1-.447.188h-.021a.609.609,0,0,1-.447-.188.6.6,0,0,1-.188-.447v-6.457a3.407,3.407,0,0,1,6.813,0Z" transform="translate(-31823.229 -5352.898)" fill="url(#linear-gradient)"/>
    <path id="Path_13049" data-name="Path 13049" d="M8838.926,1992.764a1.645,1.645,0,0,0-1.649,1.649,1.378,1.378,0,0,0,.755,1.265,11.306,11.306,0,0,0,1.732.587,4.384,4.384,0,0,1,1.664.811,2.5,2.5,0,0,1,.754,1.95,2.97,2.97,0,0,1-2.963,2.963h-2.662a.644.644,0,0,1-.636-.636v-.042a.644.644,0,0,1,.636-.636h2.732a1.649,1.649,0,0,0,1.649-1.649,1.414,1.414,0,0,0-.755-1.272,11.047,11.047,0,0,0-1.733-.636,4.711,4.711,0,0,1-1.663-.839,2.382,2.382,0,0,1-.755-1.866,2.958,2.958,0,0,1,2.963-2.963h1.88a.618.618,0,0,1,.454.189.608.608,0,0,1,.182.447v.042a.632.632,0,0,1-.636.636h-1.949Z" transform="translate(-32412.381 -5350.66)" fill="url(#linear-gradient)"/>
  </g>
</svg>
