<svg id="Group_63" data-name="Group 63" xmlns="http://www.w3.org/2000/svg" xmlns:xlink="http://www.w3.org/1999/xlink" width="75.044" height="75.189" viewBox="0 0 75.044 75.189">
  <defs>
    <clipPath id="clip-path">
      <rect id="Rectangle_86" data-name="Rectangle 86" width="75.044" height="75.189" fill="none"/>
    </clipPath>
  </defs>
  <g id="Group_62" data-name="Group 62" clip-path="url(#clip-path)">
    <path id="Path_85" data-name="Path 85" d="M24.921,215.558c-.2-.073-.4-.157-.6-.219a5.478,5.478,0,0,1-3.972-5.149c-.026-.728,0-1.458,0-2.28h-.931q-7.473,0-14.946,0c-3.241,0-5.066-2.575-3.955-5.624a13.19,13.19,0,0,1,7.478-7.9c.134-.057.265-.122.395-.187.016-.008.021-.039.06-.117a7.344,7.344,0,0,1-2.662-6.188,7.137,7.137,0,0,1,2.5-5.054,7.329,7.329,0,0,1,10.073.441,7.419,7.419,0,0,1-.6,10.791,34.885,34.885,0,0,1,3.05,1.778c.961.689,1.8,1.551,2.738,2.378a17.666,17.666,0,0,1,8.829-6.4,9.582,9.582,0,0,1-1.285-14.6A9.442,9.442,0,1,1,43.144,191.68a45.165,45.165,0,0,1,4.738,2.7,47.435,47.435,0,0,1,4.13,3.775,13.53,13.53,0,0,1,5.689-4,7.381,7.381,0,0,1-2.7-6.694,7.1,7.1,0,0,1,2.516-4.664,7.284,7.284,0,0,1,9.856.337,7.122,7.122,0,0,1,2.2,5.628,7.219,7.219,0,0,1-2.639,5.274c1.216.749,2.455,1.385,3.549,2.212a12.8,12.8,0,0,1,4.579,6.733,1.362,1.362,0,0,0,.135.248v1.469c-1.117,2.625-2.022,3.219-4.9,3.219h-15.3c0,.872.029,1.651-.006,2.427a5.453,5.453,0,0,1-3.824,4.954c-.25.079-.493.177-.74.267Zm12.744-2.35c3.908,0,7.816.007,11.723,0a3.051,3.051,0,0,0,3.207-2.628,20.23,20.23,0,0,0-.035-4.466,15.081,15.081,0,0,0-27.878-5.365,15.545,15.545,0,0,0-2.019,9.015,3.241,3.241,0,0,0,3.5,3.447q5.752.006,11.5,0m-7.036-29.268a7.043,7.043,0,1,0,7.025-7.052,7.08,7.08,0,0,0-7.025,7.052M55.06,205.556c5.339,0,10.781.014,16.222-.012a1.542,1.542,0,0,0,1.455-2.111,10.984,10.984,0,0,0-19.269-3.3.866.866,0,0,0-.1.7c.528,1.541,1.093,3.069,1.69,4.722m-34.763.005c.561-1.6,1.049-3.076,1.611-4.526a.883.883,0,0,0-.1-1.04,10.642,10.642,0,0,0-10.576-4.1,10.5,10.5,0,0,0-8.46,7.055c-.642,1.675.029,2.606,1.812,2.607q7.544,0,15.087,0Zm37-17.166a4.984,4.984,0,0,0,4.992,4.971,4.989,4.989,0,1,0-.054-9.978,4.952,4.952,0,0,0-4.939,5.008m-39.241,0a4.978,4.978,0,1,0-9.956-.053,4.978,4.978,0,1,0,9.956.053" transform="translate(-0.149 -140.369)" fill="#280f55"/>
    <path id="Path_86" data-name="Path 86" d="M288.414,56.89a13.086,13.086,0,0,1-1.13,1.211c-1.178.991-2.36,1.981-3.6,2.889a1.206,1.206,0,0,0-.493,1.587c.479,1.512.854,3.057,1.265,4.59.3,1.132.162,1.764-.534,2.236a1.823,1.823,0,0,1-2.232-.194c-1.415-.958-2.866-1.864-4.276-2.828a.829.829,0,0,0-1.1.009c-1.432.976-2.9,1.9-4.341,2.862a1.79,1.79,0,0,1-2.173.15c-.661-.445-.83-1.141-.553-2.166.446-1.65.868-3.308,1.36-4.944a.914.914,0,0,0-.4-1.16c-1.372-1.06-2.7-2.174-4.062-3.252A1.726,1.726,0,0,1,265.4,55.9a1.7,1.7,0,0,1,1.752-1.179c1.78-.095,3.56-.179,5.341-.243a.8.8,0,0,0,.836-.619c.6-1.654,1.235-3.292,1.863-4.934.364-.951.9-1.4,1.679-1.377a1.8,1.8,0,0,1,1.678,1.4c.605,1.651,1.25,3.287,1.847,4.94a.758.758,0,0,0,.787.589c1.635.059,3.268.184,4.9.209a2.434,2.434,0,0,1,2.323,1.177Zm-3.5.114c-1.211-.055-2.2-.081-3.181-.148-2.762-.188-2.7.143-3.74-2.728-.339-.937-.712-1.861-1.138-2.97-.6,1.564-1.126,2.923-1.628,4.294a1.8,1.8,0,0,1-1.8,1.321c-1.024.021-2.047.089-3.07.144-.445.024-.89.071-1.5.121a30.152,30.152,0,0,0,2.709,2.157,2.827,2.827,0,0,1,1.262,3.913,31.708,31.708,0,0,0-.93,3.382c1.231-.806,2.339-1.433,3.332-2.208a2.388,2.388,0,0,1,3.3.015c1.009.769,2.115,1.41,3.315,2.2-.413-1.516-.738-2.867-1.153-4.19a2.061,2.061,0,0,1,.811-2.554c1.109-.822,2.158-1.726,3.416-2.744" transform="translate(-213.37 -38.239)" fill="#22bcbc"/>
    <path id="Path_87" data-name="Path 87" d="M187.194,0a1.789,1.789,0,0,1,.745,1.7c-.048,1.2,0,2.4-.016,3.6-.008.858-.473,1.359-1.207,1.339-.7-.019-1.124-.505-1.132-1.34-.011-1.2.032-2.4-.016-3.6a1.781,1.781,0,0,1,.746-1.7Z" transform="translate(-149.231)" fill="#280f55"/>
    <path id="Path_88" data-name="Path 88" d="M150.045,69.7a5.822,5.822,0,0,1-.905-.421c-1.479-.948-2.952-1.907-4.4-2.9a.828.828,0,0,0-1.1,0c-1.45.991-2.939,1.925-4.4,2.9a1.753,1.753,0,0,1-2.111.124,1.7,1.7,0,0,1-.576-2.088c.46-1.722.911-3.446,1.4-5.158a.744.744,0,0,0-.309-.927c-1.382-1.086-2.743-2.2-4.11-3.306-.836-.677-1.062-1.24-.816-2.009.257-.8.8-1.154,1.882-1.207,1.657-.08,3.315-.171,4.974-.212a1.057,1.057,0,0,0,1.152-.828c.559-1.639,1.208-3.248,1.832-4.864a1.672,1.672,0,0,1,3.237-.016c.641,1.662,1.29,3.322,1.885,5a.891.891,0,0,0,.942.692c1.756.059,3.511.152,5.266.233a1.714,1.714,0,0,1,1.747,1.186,1.637,1.637,0,0,1-.683,1.927c-1.383,1.125-2.759,2.259-4.172,3.346a.869.869,0,0,0-.338,1.112c.5,1.734.963,3.482,1.418,5.23a1.693,1.693,0,0,1-1.813,2.184m-10.8-3.236c1.405-.921,2.63-1.711,3.84-2.522a1.792,1.792,0,0,1,2.179-.008c1.076.719,2.161,1.423,3.245,2.128a6.5,6.5,0,0,0,.6.295,25.988,25.988,0,0,0-.887-3.242,2.836,2.836,0,0,1,1.3-3.957,30.763,30.763,0,0,0,2.7-2.15c-1.7-.091-3.186-.186-4.671-.244a1.75,1.75,0,0,1-1.713-1.238q-.515-1.371-1.039-2.739c-.184-.484-.37-.967-.628-1.641-.6,1.578-1.12,2.939-1.626,4.307a1.813,1.813,0,0,1-1.814,1.315c-1.171.026-2.341.105-3.511.169-.3.016-.593.059-1.044.106,1.239,1,2.321,1.907,3.441,2.766a1.915,1.915,0,0,1,.767,2.306c-.312,1-.558,2.024-.827,3.039-.1.364-.178.732-.317,1.31" transform="translate(-106.653 -38.231)" fill="#22bcbc"/>
    <path id="Path_89" data-name="Path 89" d="M5.5,69.782a1.763,1.763,0,0,1-1.617-2.336c.459-1.747.917-3.5,1.428-5.228a.826.826,0,0,0-.348-1.042c-1.385-1.083-2.745-2.2-4.113-3.3a1.7,1.7,0,0,1,.981-3.159c1.706-.091,3.413-.181,5.12-.221A1.062,1.062,0,0,0,8.1,53.659c.555-1.615,1.192-3.2,1.805-4.8a1.686,1.686,0,0,1,3.293,0c.63,1.641,1.275,3.276,1.861,4.932a.886.886,0,0,0,.94.688c1.732.058,3.462.154,5.194.226a1.777,1.777,0,0,1,1.8,1.123,1.645,1.645,0,0,1-.619,1.95c-1.378,1.131-2.759,2.259-4.168,3.352a.912.912,0,0,0-.4,1.158c.487,1.611.9,3.246,1.341,4.871.295,1.085.139,1.782-.535,2.236a1.833,1.833,0,0,1-2.235-.189c-1.436-.97-2.9-1.9-4.336-2.868a.744.744,0,0,0-.976,0q-2.214,1.5-4.469,2.931a8.807,8.807,0,0,1-1.1.514m6.049-18.644c-.6,1.583-1.125,2.95-1.633,4.323a1.821,1.821,0,0,1-1.822,1.3c-1.456.045-2.91.149-4.573.239C4.748,58,5.8,58.9,6.9,59.725a2.073,2.073,0,0,1,.825,2.556c-.42,1.339-.748,2.707-1.153,4.2,1.379-.9,2.632-1.706,3.866-2.537a1.788,1.788,0,0,1,2.178-.029c.853.569,1.714,1.126,2.573,1.687.388.253.779.5,1.327.854-.424-1.584-.761-2.958-1.165-4.312a1.962,1.962,0,0,1,.787-2.368c1.123-.847,2.2-1.759,3.454-2.775-1.539-.084-2.87-.23-4.2-.209a2.205,2.205,0,0,1-2.39-1.8c-.391-1.248-.919-2.453-1.458-3.863" transform="translate(0 -38.229)" fill="#22bcbc"/>
    <path id="Path_90" data-name="Path 90" d="M222.047,38.15c-.29-.235-.775-.438-.886-.768a1.453,1.453,0,0,1,.183-1.258c1.6-1.54,3.263-3.017,4.935-4.479a1.147,1.147,0,0,1,1.522,1.706c-1.624,1.516-3.283,2.994-4.944,4.47a3.126,3.126,0,0,1-.81.328" transform="translate(-177.805 -25.234)" fill="#280f55"/>
    <path id="Path_91" data-name="Path 91" d="M133.554,37c-.278.355-.478.86-.8.956a1.665,1.665,0,0,1-1.324-.206c-1.053-.828-2.017-1.771-3.015-2.67-.562-.507-1.134-1-1.68-1.528a1.179,1.179,0,0,1-.14-1.7,1.135,1.135,0,0,1,1.694-.036q2.362,2.085,4.678,4.221a4.574,4.574,0,0,1,.587.961" transform="translate(-101.568 -25.295)" fill="#280f55"/>
  </g>
</svg>
