<svg id="Group_69" data-name="Group 69" xmlns="http://www.w3.org/2000/svg" xmlns:xlink="http://www.w3.org/1999/xlink" width="64.991" height="75.189" viewBox="0 0 64.991 75.189">
  <defs>
    <clipPath id="clip-path">
      <rect id="Rectangle_89" data-name="Rectangle 89" width="64.991" height="75.189" fill="none"/>
    </clipPath>
  </defs>
  <g id="Group_68" data-name="Group 68" clip-path="url(#clip-path)">
    <path id="Path_107" data-name="Path 107" d="M115.2,0a1.55,1.55,0,0,1,.768,1.526c-.033,2.023-.008,4.048-.014,6.072,0,.912-.4,1.392-1.127,1.391s-1.12-.478-1.122-1.395c-.006-2.024.018-4.048-.014-6.072A1.535,1.535,0,0,1,114.465,0Z" transform="translate(-82.263)" fill="#280f55"/>
    <path id="Path_108" data-name="Path 108" d="M88.023,75.262c0,1.588,0,3.125,0,4.662a4.208,4.208,0,0,1-4.5,4.5c-.93.005-1.86.026-2.789-.007-.705-.025-.953.279-.947.963.021,2.422.009,4.844.008,7.267,0,1.222-.143,1.416-1.339,1.777a3.436,3.436,0,0,1-.485,2.718c-.081.121,0,.409.089.574a3.192,3.192,0,0,1-1.826,4.8.994.994,0,0,0-.505.522,4.945,4.945,0,0,1-4.938,3.43q-2.716.008-5.432,0a5,5,0,0,1-4.952-3.424.992.992,0,0,0-.5-.526,3.194,3.194,0,0,1-1.7-4.977c.038-.061.063-.13.109-.224a3.31,3.31,0,0,1-.609-2.937c-.962-.244-1.078-.964-1.074-1.812a29.646,29.646,0,0,0-.574-7.876,18.761,18.761,0,0,0-2.8-6.093,29.17,29.17,0,0,1-5.082-12.514A18.759,18.759,0,0,1,60.535,44.949a23.029,23.029,0,0,1,15.1-.8c6.441,1.989,10.2,6.5,11.468,13.038a43.976,43.976,0,0,1,.358,5.544,3.18,3.18,0,0,0,.212,1.05c1.191,2.732,2.407,5.453,3.612,8.179a2.027,2.027,0,0,1-1.706,3.093c-.482.066-.965.129-1.561.208M77.539,92.021c0-.314,0-.578,0-.842,0-2.006-.018-4.013.007-6.019A2.891,2.891,0,0,1,80.6,82.125c.929-.015,1.86,0,2.789,0,1.7-.006,2.345-.648,2.351-2.353s0-3.426,0-5.138c0-1.1.251-1.389,1.322-1.548.672-.1,1.346-.182,2.083-.28-.128-.3-.228-.55-.335-.792-1.149-2.59-2.306-5.176-3.439-7.774a3.239,3.239,0,0,1-.25-1.121,42.034,42.034,0,0,0-.225-5.252c-.959-5.5-3.967-9.45-9.317-11.366a20,20,0,0,0-12.2-.084c-9.512,2.565-14.522,10.446-12.82,20.126a26.122,26.122,0,0,0,4.5,10.646,20.224,20.224,0,0,1,3.759,10.493c.095,1.429.015,2.87.015,4.342Zm-9.534,4.187c2.4,0,4.791.007,7.187,0,.694,0,1.08-.358,1.083-.925s-.382-.905-1.077-.938c-.268-.013-.538,0-.806,0H61.558c-.2,0-.391-.006-.587,0-.721.03-1.176.406-1.122.972.063.656.489.9,1.115.9,2.347-.006,4.693,0,7.04,0m.088,4.151h6.671a5.558,5.558,0,0,0,.659-.019.862.862,0,0,0,.851-.92.853.853,0,0,0-.856-.91,4.8,4.8,0,0,0-.513-.014H61.27c-.171,0-.342,0-.513.011a.862.862,0,0,0-.891.884.874.874,0,0,0,.9.954c.218.019.439.014.659.014h6.671m-5.346,2.322a2.278,2.278,0,0,0,1.882,1.417c2.29.068,4.584.065,6.875.005a1.9,1.9,0,0,0,1.759-1.423Z" transform="translate(-34.675 -31.275)" fill="#280f55"/>
    <path id="Path_109" data-name="Path 109" d="M207.05,116.015c-1.025,0-2.05.011-3.075,0-.863-.012-1.4-.484-1.374-1.179.022-.676.531-1.11,1.365-1.114q3.148-.015,6.3,0c.837,0,1.321.443,1.324,1.142s-.473,1.136-1.314,1.149c-1.073.017-2.148,0-3.221,0" transform="translate(-146.595 -82.278)" fill="#280f55"/>
    <path id="Path_110" data-name="Path 110" d="M4.457,115.545c-1.025,0-2.049.008-3.074,0C.491,115.534,0,115.111,0,114.388s.5-1.139,1.4-1.143q3.074-.014,6.148,0c.892,0,1.421.427,1.441,1.116.02.713-.539,1.175-1.454,1.183-1.025.009-2.049,0-3.074,0" transform="translate(0 -81.936)" fill="#280f55"/>
    <path id="Path_111" data-name="Path 111" d="M16.157,56.116a8.444,8.444,0,0,1,.938.374q2.732,1.564,5.451,3.15c.727.425.946,1.047.619,1.639a1.18,1.18,0,0,1-1.773.32q-2.761-1.587-5.511-3.192c-.517-.3-.854-.757-.594-1.33a4.1,4.1,0,0,1,.87-.961" transform="translate(-10.996 -40.604)" fill="#280f55"/>
    <path id="Path_112" data-name="Path 112" d="M198.878,58.446a2.649,2.649,0,0,1-.639.75c-1.885,1.134-3.793,2.231-5.708,3.315a1.127,1.127,0,1,1-1.089-1.969c1.875-1.1,3.755-2.2,5.649-3.271a1.166,1.166,0,0,1,1.787,1.175" transform="translate(-138.053 -41.304)" fill="#280f55"/>
    <path id="Path_113" data-name="Path 113" d="M23.086,159.3a2.7,2.7,0,0,1-.659.8c-1.861,1.125-3.75,2.205-5.643,3.278a1.125,1.125,0,0,1-1.646-.392,1.1,1.1,0,0,1,.514-1.55c1.876-1.1,3.756-2.2,5.651-3.264.851-.48,1.748-.016,1.782,1.125" transform="translate(-10.845 -114.315)" fill="#280f55"/>
    <path id="Path_114" data-name="Path 114" d="M159.724,23.426c-1.174.026-1.686-.9-1.2-1.775.733-1.322,1.507-2.621,2.264-3.93.342-.591.668-1.192,1.032-1.769a1.13,1.13,0,1,1,1.947,1.144c-1.083,1.909-2.176,3.813-3.306,5.693a2.649,2.649,0,0,1-.738.637" transform="translate(-114.571 -11.096)" fill="#280f55"/>
    <path id="Path_115" data-name="Path 115" d="M58.294,15.125a2.479,2.479,0,0,1,.776.614c1.138,1.882,2.233,3.79,3.32,5.7a1.122,1.122,0,0,1-.359,1.6,1.141,1.141,0,0,1-1.621-.5c-1.1-1.876-2.194-3.757-3.259-5.653a1.162,1.162,0,0,1,1.143-1.766" transform="translate(-41.224 -10.944)" fill="#280f55"/>
    <path id="Path_116" data-name="Path 116" d="M84.687,62.63c.908.128,1.906.227,2.886.419s1.29.76.957,1.716a1.1,1.1,0,0,0,.223,1.342,1.569,1.569,0,0,0,1.121.3,1.6,1.6,0,0,0,.836-.728c.518-.808,1.1-.984,1.89-.446a13.5,13.5,0,0,1,3.884,4.047,1.131,1.131,0,0,1-.5,1.815c-.791.417-1.056.917-.825,1.56s.817.874,1.705.637a1.1,1.1,0,0,1,1.556.946,13.47,13.47,0,0,1-.081,5.678,1.15,1.15,0,0,1-1.646.929q-1.319-.394-1.716.6c-.25.622,0,1.122.784,1.583A1.116,1.116,0,0,1,96.2,84.8a13.55,13.55,0,0,1-4.084,3.949,1.158,1.158,0,0,1-1.829-.493c-.431-.79-.938-1.057-1.571-.823q-.989.364-.644,1.7a1.143,1.143,0,0,1-1,1.6,13.1,13.1,0,0,1-5.6-.1,1.151,1.151,0,0,1-.948-1.641c.262-.934.087-1.448-.585-1.715-.628-.249-1.135,0-1.581.779a1.118,1.118,0,0,1-1.779.445,13.5,13.5,0,0,1-3.991-4.142,1.134,1.134,0,0,1,.5-1.769c.822-.447,1.088-.979.815-1.628s-.79-.829-1.657-.6a1.141,1.141,0,0,1-1.617-.974,13.305,13.305,0,0,1,.075-5.534c.225-1.027.732-1.3,1.775-1a1.213,1.213,0,0,0,1.6-.61,1.189,1.189,0,0,0-.679-1.567c-.891-.5-1.044-1.093-.468-1.925a13.688,13.688,0,0,1,3.992-3.838,1.169,1.169,0,0,1,1.877.509c.406.763.955,1.039,1.576.793.657-.26.867-.8.646-1.649-.244-.941.072-1.482,1.016-1.631.843-.133,1.7-.2,2.644-.309m.931,25.985a3.515,3.515,0,0,1,2.232-3.273,3.6,3.6,0,0,1,3.992.976l1.827-1.889c-2.11-2.366-.879-5.868,2.66-6.095V75.729a3.475,3.475,0,0,1-3.3-2.243,3.518,3.518,0,0,1,.938-3.922l-1.885-1.842c-.263.189-.454.343-.66.472a3.452,3.452,0,0,1-5.167-1.907c-.126-.42-.148-1.012-.433-1.2-.328-.221-.9-.09-1.36-.1-.336-.009-.673,0-1,0-.232,3.329-3.647,4.721-6.229,2.4l-1.794,1.9a3.469,3.469,0,0,1,.741,3.882,3.654,3.654,0,0,1-3.435,2.144v2.615a3.4,3.4,0,0,1,3.283,2.226,3.549,3.549,0,0,1-.949,3.941l1.87,1.865c2.749-2.13,5.365-.972,6.113,2.66Z" transform="translate(-50.919 -45.317)" fill="#22bcbc"/>
    <path id="Path_117" data-name="Path 117" d="M102.929,88.121a7.184,7.184,0,1,1-7.208,7.14,7.192,7.192,0,0,1,7.208-7.14m4.864,7.137a4.907,4.907,0,1,0-4.856,4.926,4.916,4.916,0,0,0,4.856-4.926" transform="translate(-69.261 -63.762)" fill="#22bcbc"/>
  </g>
</svg>
