<svg xmlns="http://www.w3.org/2000/svg" width="58.72" height="57.057" viewBox="0 0 58.72 57.057">
  <g id="value_for_money" data-name="value for money" transform="translate(-0.006 -5.934)">
    <path id="Path_14200" data-name="Path 14200" d="M152.083,13.2c.809-1.153,1.6-2.282,2.393-3.411.694-.989,1.379-1.984,2.079-2.97A1.671,1.671,0,0,1,159.5,6.8q3.426,4.872,6.831,9.76a1.676,1.676,0,0,1-1.408,2.74c-.862-.008-1.723,0-2.677,0V37.913c0,1.462-.6,2.06-2.058,2.061s-2.918,0-4.376,0c-1.382-.006-1.986-.624-1.987-2.017V36.6a14.366,14.366,0,0,1-12.388,3.022,13.98,13.98,0,0,1-8.306-5.214A14.453,14.453,0,0,1,152.086,13.2Zm-7.545,3.247c-.421.029-.846.032-1.262.092a9.07,9.07,0,1,0,8.134,3.1,1.184,1.184,0,0,0-.607-.353,1.838,1.838,0,0,1-1.338-1.066,1.468,1.468,0,0,0-.53-.611,8.788,8.788,0,0,0-4.4-1.167Zm12.617,21.632V25.3a5.535,5.535,0,0,1,.009-.576.847.847,0,0,1,.849-.845.861.861,0,0,1,.951.739,2.683,2.683,0,0,1,.032.63V38.082h1.422v-18.4c0-1.685.547-2.225,2.253-2.225h2.05c-2.262-3.231-4.449-6.355-6.669-9.524l-6.658,9.524h2.221c1.477,0,2.069.585,2.069,2.046V38.078h1.47Zm-6.136-23.334a12,12,0,0,0-5.669-1.789A12.536,12.536,0,0,0,132.059,27.17a11.869,11.869,0,0,0,8.4,10.233c4.915,1.656,9.344.528,13.071-3.135a.816.816,0,0,0,.267-.475c.028-.794.012-1.59.012-2.48a11.072,11.072,0,0,1-15.5,3.193,10.961,10.961,0,0,1-3.658-13.65,10.567,10.567,0,0,1,5.292-5.236,10.921,10.921,0,0,1,10.127.471l.948-1.35Z" transform="translate(-110.085)" fill="#22bcbc"/>
    <path id="Path_14201" data-name="Path 14201" d="M7.326,228.76c1.419-.418,2.814-.825,4.207-1.239,2.13-.634,4.271-1.235,6.383-1.927a7.536,7.536,0,0,1,4.3.129c2.792.685,5.593,1.33,8.386,2.01a4.163,4.163,0,0,1,3.48,4.471c0,.131.011.261.018.432,1.585-.215,3.141-.424,4.695-.636l13.11-1.791c.76-.1,1.519-.212,2.279-.318a3.86,3.86,0,0,1,4.07,1.981,3.67,3.67,0,0,1-.511,4.328,4.907,4.907,0,0,1-1.821,1.136q-9.968,3.444-19.966,6.8c-1.686.57-3.374,1.16-5.1,1.586a14.136,14.136,0,0,1-6.6-.353c-2.075-.471-4.159-.9-6.245-1.318a7.871,7.871,0,0,0-3.981.2c-.617.2-1.241.373-1.821.547a9.01,9.01,0,0,1-.011,1.246,1.867,1.867,0,0,1-1.224,1.551,27.511,27.511,0,0,1-2.946.968,2.251,2.251,0,0,1-3.056-1.777q-2.417-8.1-4.827-16.2a2.138,2.138,0,0,1,1.556-2.9c.753-.226,1.507-.445,2.259-.671,1.806-.541,2.671-.115,3.374,1.739Zm4.208,14.3c.223-.061.369-.1.514-.143a14.251,14.251,0,0,1,6.649-.573c2.281.421,4.546.925,6.808,1.436a11.611,11.611,0,0,0,6.412-.2q11.705-3.965,23.406-7.939a2.034,2.034,0,0,0,1.5-2.43,2.084,2.084,0,0,0-2.514-1.465c-2.963.416-5.928.816-8.892,1.218-4.048.55-8.1,1.09-12.142,1.653a1.48,1.48,0,0,0-.645.33,3.47,3.47,0,0,1-2.311.9,18.338,18.338,0,0,1-2.878-.455c-2.095-.467-4.179-.978-6.265-1.488a.9.9,0,0,1-.76-1.1.921.921,0,0,1,1.187-.7c.169.034.336.078.5.118,2.405.57,4.807,1.155,7.22,1.7a2.877,2.877,0,0,0,1.3-.009,2.127,2.127,0,0,0,1.6-2.127,2.223,2.223,0,0,0-1.72-2.176c-3.055-.742-6.117-1.45-9.17-2.19a5.134,5.134,0,0,0-2.829-.071c-2.139.668-4.294,1.29-6.443,1.932-1.41.421-2.82.846-4.257,1.278,1.246,4.18,2.476,8.309,3.723,12.492ZM5.141,228.622c-1.126.338-2.121.622-3.1.951-.1.032-.177.359-.135.518.212.816.465,1.62.706,2.428q2.064,6.911,4.119,13.824c.138.468.335.576.782.428.763-.252,1.534-.488,2.313-.685.5-.127.568-.359.424-.831-.886-2.913-1.743-5.836-2.611-8.756q-1.08-3.635-2.17-7.269a3.248,3.248,0,0,0-.327-.607Z" transform="translate(0 -185.7)" fill="#280f55"/>
    <path id="Path_14202" data-name="Path 14202" d="M199.543,86.673a13.754,13.754,0,0,1,1.352.418,3.317,3.317,0,0,1,2.076,3.058.864.864,0,0,1-.786.963.807.807,0,0,1-.925-.748,2.053,2.053,0,0,0-1.745-2c0,1.044-.012,2.055.017,3.064,0,.114.226.264.376.323.534.207,1.106.33,1.619.579a3.1,3.1,0,0,1,.2,5.511,12.761,12.761,0,0,1-1.814.673c-.157.061-.367.215-.39.353-.146.877-.353,1.161-.9,1.152a.946.946,0,0,1-.809-1.224,1.113,1.113,0,0,0-.021-.258c-.26-.055-.518-.108-.773-.167a3.845,3.845,0,0,1-3-3.568c-.034-.673.255-1.1.774-1.144s.868.329.949,1a2.372,2.372,0,0,0,2.073,2.146c0-1.173.009-2.334-.014-3.494,0-.111-.183-.263-.312-.316-.353-.146-.734-.224-1.084-.373a2.841,2.841,0,0,1-1.935-2.84,3.034,3.034,0,0,1,2.132-2.788c.376-.131.773-.2,1.16-.3.178-1.17.358-1.459.906-1.453.574.006.777.338.872,1.442Zm0,6.891v3.284a1.829,1.829,0,0,0,2.02-1.473C201.672,94.467,200.99,93.841,199.542,93.564Zm-1.755-5.18c-.948.089-1.562.63-1.586,1.37-.026.771.465,1.212,1.586,1.411V88.383Z" transform="translate(-164.219 -67.117)" fill="#22bcbc"/>
    <path id="Path_14203" data-name="Path 14203" d="M21.482,256.18a.856.856,0,0,1,.84.663c.528,1.737,1.06,3.476,1.563,5.22a.911.911,0,0,1-.6,1.15.923.923,0,0,1-1.17-.654c-.524-1.7-1.037-3.4-1.527-5.111a.922.922,0,0,1,.9-1.267Z" transform="translate(-17.374 -211.813)" fill="#280f55"/>
    <path id="Path_14204" data-name="Path 14204" d="M37.536,307.854c-.054.614-.284.945-.757,1.041a.824.824,0,0,1-1-.495,7.776,7.776,0,0,1-.456-1.536.826.826,0,0,1,.588-.941.776.776,0,0,1,1.047.335A12.6,12.6,0,0,1,37.536,307.854Z" transform="translate(-29.884 -253.852)" fill="#280f55"/>
  </g>
</svg>
