<svg version="1.1" width="84.087" height="84.804" viewBox="0 0 84.087 84.804" xmlns="http://www.w3.org/2000/svg" xmlns:xlink="http://www.w3.org/1999/xlink" id="_1255953_1_" overflow="hidden"><style>
.MsftOfcThm_Accent1_lumMod_50_Fill {
 fill:#203864; 
}
</style>
<path d=" M 44.69 45.44 L 47.767 45.44 L 55.8 54.369 L 57.193 52.715 C 57.228 52.674 60.463 48.838 63.619 45.44 L 82.843 45.44 C 87.4843 45.4345 91.2455 41.6733 91.251 37.032 L 91.251 13.408 C 91.2466 8.76622 87.4848 5.00441 82.843 5 L 44.69 5 C 40.0487 5.00551 36.2875 8.76667 36.282 13.408 L 36.282 37.032 C 36.2875 41.6733 40.0487 45.4345 44.69 45.44 Z M 40.046 13.408 C 40.0488 10.8443 42.1263 8.76676 44.69 8.764 L 82.843 8.764 C 85.4059 8.76731 87.4827 10.8441 87.486 13.407 L 87.486 37.032 C 87.4827 39.5949 85.4059 41.6717 82.843 41.675 L 61.991 41.675 L 61.434 42.268 C 59.329 44.504 57.109 47.038 55.719 48.649 L 49.444 41.676 L 44.69 41.676 C 42.1271 41.6727 40.0503 39.5959 40.047 37.033 Z" id="Path_59" stroke="none" stroke-width="1" stroke-dasharray="" stroke-dashoffset="1" fill="#203864" fill-opacity="1" transform="matrix(1,0,0,1,-7.164,-5)"/><path d=" M 18.24 61.71 L 20.018 61.71 C 24.0193 61.6979 27.2599 58.4573 27.272 54.456 L 27.272 50.856 C 27.261 46.8543 24.0206 43.6126 20.019 43.6 L 18.24 43.6 C 14.2387 43.6121 10.9981 46.8527 10.986 50.854 L 10.986 54.454 C 10.997 58.456 14.238 61.6979 18.24 61.71 Z M 14.75 50.853 C 14.7522 48.9264 16.3134 47.3652 18.24 47.363 L 20.018 47.363 C 21.9446 47.3652 23.5058 48.9264 23.508 50.853 L 23.508 54.453 C 23.5058 56.3796 21.9446 57.9408 20.018 57.943 L 18.24 57.943 C 16.3134 57.9408 14.7522 56.3796 14.75 54.453 L 14.75 50.853 Z" id="Path_60" stroke="none" stroke-width="1" stroke-dasharray="" stroke-dashoffset="1" fill="#203864" fill-opacity="1" transform="matrix(1,0,0,1,-5.704,-7.229)"/><path d=" M 29.883 78.311 L 29.883 78.368 L 30.168 78.368 Z" id="Path_61" stroke="none" stroke-width="1" stroke-dasharray="" stroke-dashoffset="1" fill="#203864" fill-opacity="1" transform="matrix(1,0,0,1,-6.795,-9.233)"/><path d=" M 9.144 75.885 C 9.14731 72.7588 11.6808 70.2253 14.807 70.222 L 22.807 70.222 C 25.0373 70.2251 27.0585 71.5359 27.971 73.571 L 18.731 73.571 L 18.731 77.335 L 31.22 77.335 L 35.238 66.21 L 50.506 66.21 L 45.111 80.1 L 5.713 80.1 L 5.713 83.864 L 58.474 83.864 L 58.474 80.1 L 49.149 80.1 L 50.179 77.449 L 56.006 62.449 L 32.6 62.449 L 29.956 69.767 C 28.1701 67.6695 25.5548 66.4598 22.8 66.457 L 14.8 66.457 C 9.60234 66.4762 5.39481 70.6873 5.38 75.885 L 5.38 77.452 L 9.144 77.452 Z" id="Path_62" stroke="none" stroke-width="1" stroke-dasharray="" stroke-dashoffset="1" fill="#203864" fill-opacity="1" transform="matrix(1,0,0,1,-5.38,-8.317)"/><path d=" M 78.83 53.918 C 74.8287 53.9301 71.5881 57.1707 71.576 61.172 L 71.576 64.772 C 71.5875 68.7737 74.8283 72.0149 78.83 72.027 L 80.608 72.027 C 84.6096 72.0149 87.8505 68.7737 87.862 64.772 L 87.862 61.172 C 87.8499 57.1707 84.6093 53.9301 80.608 53.918 L 78.83 53.918 Z M 84.1 61.173 L 84.1 64.773 C 84.0978 66.6996 82.5366 68.2608 80.61 68.263 L 78.83 68.263 C 76.9034 68.2608 75.3422 66.6996 75.34 64.773 L 75.34 61.173 C 75.3422 59.2464 76.9034 57.6852 78.83 57.683 L 80.608 57.683 C 82.5356 57.6835 84.0983 59.2454 84.1 61.173 Z" id="Path_63" stroke="none" stroke-width="1" stroke-dasharray="" stroke-dashoffset="1" fill="#203864" fill-opacity="1" transform="matrix(1,0,0,1,-9.202,-7.824)"/><path d=" M 65.97 86.451 L 65.97 93.962 L 92.822 93.962 L 92.822 86.451 C 92.8185 86.0006 92.7824 85.5511 92.714 85.106 C 92.2794 82.1441 90.4693 79.5623 87.833 78.144 C 86.4693 77.4087 84.9443 77.0238 83.395 77.024 L 75.395 77.024 C 73.8456 77.0233 72.3205 77.4082 70.957 78.144 C 67.8936 79.7853 65.9784 82.9756 65.97 86.451 Z M 69.734 86.451 C 69.7373 83.3236 72.2726 80.7896 75.4 80.788 L 83.4 80.788 C 86.5262 80.7913 89.0597 83.3248 89.063 86.451 L 89.063 90.2 L 69.734 90.2 Z" id="Path_64" stroke="none" stroke-width="1" stroke-dasharray="" stroke-dashoffset="1" fill="#203864" fill-opacity="1" transform="matrix(1,0,0,1,-8.878,-9.158)"/><ellipse cx="2.425" cy="2.425" rx="2.425" ry="2.425" id="Ellipse_14" stroke="none" stroke-width="1" stroke-dasharray="" stroke-dashoffset="1" fill="#203864" fill-opacity="1" transform="matrix(1,0,0,1,44.28,19.305)"/><ellipse cx="2.425" cy="2.425" rx="2.425" ry="2.425" id="Ellipse_15" stroke="none" stroke-width="1" stroke-dasharray="" stroke-dashoffset="1" fill="#203864" fill-opacity="1" transform="matrix(1,0,0,1,54.177,19.305)"/><ellipse cx="2.425" cy="2.425" rx="2.425" ry="2.425" id="Ellipse_16" stroke="none" stroke-width="1" stroke-dasharray="" stroke-dashoffset="1" fill="#203864" fill-opacity="1" transform="matrix(1,0,0,1,64.076,19.305)"/></svg>