<svg xmlns="http://www.w3.org/2000/svg" width="158.412" height="60.422" viewBox="0 0 158.412 60.422">
  <g id="Layer_x0020_1" transform="translate(0.002)">
    <path id="Path_13050" data-name="Path 13050" d="M20.878.3,17.943,12A8.181,8.181,0,0,1,12,17.945L.294,20.881a.392.392,0,0,0,0,.761L12,24.577a8.181,8.181,0,0,1,5.945,5.946l2.935,11.7a.392.392,0,0,0,.761,0l2.935-11.7a8.181,8.181,0,0,1,5.946-5.946l11.7-2.935a.392.392,0,0,0,0-.761l-11.7-2.935A8.181,8.181,0,0,1,24.574,12L21.639.3a.392.392,0,0,0-.761,0Z" transform="translate(0)" fill="#fff" fill-rule="evenodd"/>
    <path id="Path_13051" data-name="Path 13051" d="M1004.288,1000.278l.507,2.022a1.683,1.683,0,0,0,1.223,1.223l2.022.507a.143.143,0,0,1,0,.278l-2.022.507a1.682,1.682,0,0,0-1.223,1.223l-.507,2.022a.143.143,0,0,1-.278,0l-.507-2.022a1.683,1.683,0,0,0-1.223-1.223l-2.022-.507a.143.143,0,0,1,0-.278l2.022-.507a1.684,1.684,0,0,0,1.223-1.223l.507-2.022A.143.143,0,0,1,1004.288,1000.278Z" transform="translate(-982.891 -982.908)" fill="#230d5a"/>
    <path id="Path_13052" data-name="Path 13052" d="M2854.657,390.975a1.225,1.225,0,0,1-.387.919,1.256,1.256,0,0,1-.918.387h-.043a1.257,1.257,0,0,1-.919-.387,1.225,1.225,0,0,1-.387-.919V377.711a4.343,4.343,0,1,0-8.685,0v13.264a1.225,1.225,0,0,1-.388.919,1.256,1.256,0,0,1-.918.387h-.043a1.257,1.257,0,0,1-.919-.387,1.225,1.225,0,0,1-.388-.919V377.711a7,7,0,1,1,14,0v13.264Z" transform="translate(-2791.635 -364.322)" fill="#fff"/>
    <path id="Path_13053" data-name="Path 13053" d="M3809.147,714.414a5.189,5.189,0,0,0-5.125,5.957l9.087-4.105A4.938,4.938,0,0,0,3809.147,714.414Zm7.12,1.895a1.293,1.293,0,0,1-.646,1.737q-2.01.9-5.282,2.383l-5.269,2.383a4.928,4.928,0,0,0,4.077,1.981,5.187,5.187,0,0,0,4.9-3.488,1.231,1.231,0,0,1,1.263-.89,1.26,1.26,0,0,1,1.077.56,1.233,1.233,0,0,1,.158,1.192,7.546,7.546,0,0,1-2.813,3.761,7.651,7.651,0,0,1-4.579,1.478,7.838,7.838,0,1,1,4.277-14.4A7.663,7.663,0,0,1,3816.267,716.309Z" transform="translate(-3735.703 -699.446)" fill="#fff"/>
    <path id="Path_13054" data-name="Path 13054" d="M4846.277,379.28a5.2,5.2,0,1,0,3.66,1.522A5,5,0,0,0,4846.277,379.28Zm-6.488-8.57a1.3,1.3,0,0,1,1.306,1.306v6.546a7.826,7.826,0,1,1-2.655,5.914v-12.46a1.3,1.3,0,0,1,1.306-1.306h.044Z" transform="translate(-4754.933 -364.312)" fill="#fff"/>
    <path id="Path_13055" data-name="Path 13055" d="M5890.725,720.9a3.855,3.855,0,1,0,7.709,0v-7.852a1.323,1.323,0,0,1,1.321-1.321h.028a1.226,1.226,0,0,1,.919.387,1.27,1.27,0,0,1,.387.933V720.9a6.51,6.51,0,0,1-13.02,0v-7.852a1.274,1.274,0,0,1,.387-.933,1.257,1.257,0,0,1,.92-.387h.043a1.258,1.258,0,0,1,.919.387,1.274,1.274,0,0,1,.387.933Z" transform="translate(-5786.447 -699.446)" fill="#fff"/>
    <path id="Path_13056" data-name="Path 13056" d="M6843.419,370.72a1.3,1.3,0,0,1,1.307,1.306v18.948a1.228,1.228,0,0,1-.388.919,1.258,1.258,0,0,1-.919.387h-.043a1.257,1.257,0,0,1-.919-.387,1.228,1.228,0,0,1-.388-.919V372.026a1.3,1.3,0,0,1,1.307-1.306Z" transform="translate(-6723.982 -364.322)" fill="#fff"/>
    <path id="Path_13057" data-name="Path 13057" d="M7199.722,715.9a5.189,5.189,0,1,0,7.335,0,5.18,5.18,0,0,0-7.335,0Zm9.216-1.881a7.555,7.555,0,0,1,2.3,5.542v6.531a1.226,1.226,0,0,1-.387.919,1.256,1.256,0,0,1-.919.388h-.043a1.251,1.251,0,0,1-.918-.388,1.221,1.221,0,0,1-.389-.919v-.66a7.834,7.834,0,1,1,.36-11.413Z" transform="translate(-7071.37 -699.436)" fill="#fff"/>
    <path id="Path_13058" data-name="Path 13058" d="M8274.283,715.9a5.189,5.189,0,1,0,7.335,0,5.18,5.18,0,0,0-7.335,0Zm9.215-1.881a7.552,7.552,0,0,1,2.3,5.542v6.531a1.224,1.224,0,0,1-.388.919,1.256,1.256,0,0,1-.918.388h-.044a1.25,1.25,0,0,1-.917-.388,1.225,1.225,0,0,1-.389-.919v-.66a7.835,7.835,0,1,1,.358-11.413Z" transform="translate(-8127.385 -699.436)" fill="#fff"/>
    <path id="Path_13059" data-name="Path 13059" d="M2886.63,1993.74a.6.6,0,0,1,.6.6v8.7a.563.563,0,0,1-.178.422.576.576,0,0,1-.422.178h-.02a.577.577,0,0,1-.422-.178.564.564,0,0,1-.178-.422v-8.7a.6.6,0,0,1,.6-.6Z" transform="translate(-2836.202 -1959.329)" fill="#fff"/>
    <path id="Path_13060" data-name="Path 13060" d="M3190.318,1994.354a.581.581,0,0,1-.178.428.571.571,0,0,1-.422.172h-1.807v8.091a.574.574,0,0,1-.171.422.584.584,0,0,1-.429.178h-.014a.585.585,0,0,1-.429-.178.576.576,0,0,1-.171-.422v-8.091h-1.807a.6.6,0,0,1-.6-.6v-.013a.6.6,0,0,1,.6-.6h4.827a.576.576,0,0,1,.422.171.586.586,0,0,1,.178.429v.013Z" transform="translate(-3129.333 -1959.329)" fill="#fff"/>
    <path id="Path_13061" data-name="Path 13061" d="M4106.655,1992.69a1.553,1.553,0,0,0-1.557,1.556,1.3,1.3,0,0,0,.712,1.193,10.7,10.7,0,0,0,1.636.554,4.137,4.137,0,0,1,1.569.765,2.358,2.358,0,0,1,.712,1.84,2.8,2.8,0,0,1-2.8,2.8h-2.512a.609.609,0,0,1-.6-.6v-.04a.609.609,0,0,1,.6-.6H4107a1.514,1.514,0,0,0,1.1-.455,1.5,1.5,0,0,0,.455-1.1,1.335,1.335,0,0,0-.711-1.2,10.461,10.461,0,0,0-1.637-.6,4.446,4.446,0,0,1-1.569-.791,2.244,2.244,0,0,1-.713-1.761,2.793,2.793,0,0,1,2.8-2.8h1.773a.588.588,0,0,1,.43.178.578.578,0,0,1,.171.422v.04a.6.6,0,0,1-.6.6h-1.839Z" transform="translate(-4032.992 -1957.079)" fill="#fff"/>
    <path id="Path_13062" data-name="Path 13062" d="M4664.646,1996.058a3.732,3.732,0,1,0,2.638-1.095A3.6,3.6,0,0,0,4664.646,1996.058Zm6.146-.857a4.96,4.96,0,1,1-3.509-1.451A4.776,4.776,0,0,1,4670.792,1995.2Z" transform="translate(-4581.863 -1959.339)" fill="#fff"/>
    <path id="Path_13063" data-name="Path 13063" d="M5473.089,2001.417a.991.991,0,0,0,.989.989H5476a.607.607,0,0,1,.607.607v.013a.568.568,0,0,1-.178.422.587.587,0,0,1-.43.178h-1.919a2.206,2.206,0,0,1-2.209-2.209v-7.1a.6.6,0,0,1,.6-.6h.021a.6.6,0,0,1,.6.6v7.1Z" transform="translate(-5377.43 -1959.31)" fill="#fff"/>
    <path id="Path_13064" data-name="Path 13064" d="M5957.351,2000.433a3.215,3.215,0,0,1-6.43,0v-6.093a.6.6,0,0,1,.6-.6h.021a.588.588,0,0,1,.422.171.58.58,0,0,1,.179.429v6.093a2,2,0,1,0,3.99,0v-6.093a.6.6,0,0,1,.6-.6h.02a.6.6,0,0,1,.6.6Z" transform="translate(-5848.214 -1959.329)" fill="#fff"/>
    <path id="Path_13065" data-name="Path 13065" d="M6545.627,1994.354a.581.581,0,0,1-.178.428.574.574,0,0,1-.423.172h-1.807v8.091a.567.567,0,0,1-.172.422.58.58,0,0,1-.427.178h-.015a.581.581,0,0,1-.428-.178.57.57,0,0,1-.171-.422v-8.091H6540.2a.6.6,0,0,1-.6-.6v-.013a.586.586,0,0,1,.178-.429.592.592,0,0,1,.423-.171h4.826a.576.576,0,0,1,.423.171.583.583,0,0,1,.178.429Z" transform="translate(-6426.732 -1959.329)" fill="#fff"/>
    <path id="Path_13066" data-name="Path 13066" d="M7117.079,1993.74a.6.6,0,0,1,.6.6v8.7a.562.562,0,0,1-.179.422.574.574,0,0,1-.422.178h-.02a.58.58,0,0,1-.423-.178.564.564,0,0,1-.177-.422v-8.7a.585.585,0,0,1,.177-.429.592.592,0,0,1,.423-.171Z" transform="translate(-6993.636 -1959.329)" fill="#fff"/>
    <path id="Path_13067" data-name="Path 13067" d="M7432.356,1996.058a3.731,3.731,0,1,0,2.637-1.095A3.6,3.6,0,0,0,7432.356,1996.058Zm6.145-.857a4.959,4.959,0,1,1-3.508-1.451A4.769,4.769,0,0,1,7438.5,1995.2Z" transform="translate(-7301.805 -1959.339)" fill="#fff"/>
    <path id="Path_13068" data-name="Path 13068" d="M8242.219,2003.035a.561.561,0,0,1-.178.422.576.576,0,0,1-.422.178h-.02a.579.579,0,0,1-.422-.178.561.561,0,0,1-.178-.422v-6.093a2,2,0,1,0-3.99,0v6.093a.556.556,0,0,1-.18.422.571.571,0,0,1-.42.178h-.02a.573.573,0,0,1-.422-.178.563.563,0,0,1-.18-.422v-6.093a3.216,3.216,0,0,1,6.432,0v6.093Z" transform="translate(-8093.646 -1959.319)" fill="#fff"/>
    <path id="Path_13069" data-name="Path 13069" d="M8838.756,1992.69a1.553,1.553,0,0,0-1.557,1.556,1.3,1.3,0,0,0,.711,1.193,10.812,10.812,0,0,0,1.637.554,4.1,4.1,0,0,1,1.568.765,2.358,2.358,0,0,1,.713,1.84,2.8,2.8,0,0,1-2.8,2.8h-2.512a.607.607,0,0,1-.6-.6v-.04a.607.607,0,0,1,.6-.6h2.578a1.557,1.557,0,0,0,1.559-1.556,1.335,1.335,0,0,0-.713-1.2,10.461,10.461,0,0,0-1.637-.6,4.422,4.422,0,0,1-1.568-.791,2.241,2.241,0,0,1-.713-1.761,2.789,2.789,0,0,1,2.8-2.8h1.773a.582.582,0,0,1,.428.178.572.572,0,0,1,.172.422v.04a.6.6,0,0,1-.6.6h-1.84Z" transform="translate(-8683.42 -1957.079)" fill="#fff"/>
    <line id="Line_1" data-name="Line 1" x2="108.126" transform="translate(49.788 50.895)" fill="none" stroke="#fff" stroke-miterlimit="10" stroke-width="1"/>
    <path id="Path_13070" data-name="Path 13070" d="M2911.67,3126.851a8.6,8.6,0,0,0,1.086.06,2.941,2.941,0,0,0,1.994-.6,2.276,2.276,0,0,0,.686-1.751,1.973,1.973,0,0,0-.686-1.622,2.679,2.679,0,0,0-1.8-.509,8.121,8.121,0,0,0-1.283.09Zm.8-3.752a2.563,2.563,0,0,1,.551-.046,1.4,1.4,0,0,1,1.562,1.531,1.51,1.51,0,0,1-1.668,1.687,2.873,2.873,0,0,1-.445-.021Zm3.328.582,1.164,2.922a.354.354,0,0,1,.046.158.338.338,0,0,1-.051.143,1.454,1.454,0,0,1-.911.727l.184.68a1.613,1.613,0,0,0,.843-.414,4.751,4.751,0,0,0,1.112-2.046l.8-2.17h-.862l-.5,1.7c-.058.21-.117.444-.169.628h-.02c-.046-.184-.111-.424-.177-.62l-.576-1.707Zm3.649,3.184h.81v-1.87a.827.827,0,0,1,.033-.261.674.674,0,0,1,.628-.471c.438,0,.607.347.607.8v1.8h.8v-1.891c0-1.006-.576-1.366-1.132-1.366a1.152,1.152,0,0,0-1.014.548h-.019l-.039-.477h-.706c.018.275.025.582.025.947v2.237Zm6.257,0a4.973,4.973,0,0,1-.047-.765v-1.151a1.19,1.19,0,0,0-1.314-1.34,2.29,2.29,0,0,0-1.151.282l.158.522a1.684,1.684,0,0,1,.856-.235c.563,0,.646.346.646.556v.052c-1.177-.006-1.888.4-1.888,1.2a.946.946,0,0,0,1,.949,1.179,1.179,0,0,0,.941-.426h.019l.052.354h.727Zm-.831-1.118a.615.615,0,0,1-.026.176.653.653,0,0,1-.628.437.422.422,0,0,1-.458-.458c0-.483.543-.607,1.112-.6Zm1.634,1.118h.784v-1.883a.671.671,0,0,1,.046-.261.627.627,0,0,1,.574-.458c.373,0,.55.313.55.758v1.844h.785v-1.909a1.22,1.22,0,0,1,.038-.269.615.615,0,0,1,.563-.424c.386,0,.567.313.567.843v1.759h.786v-1.876c0-1.021-.536-1.38-1.066-1.38a1.065,1.065,0,0,0-.641.189,1.209,1.209,0,0,0-.393.4h-.013a.916.916,0,0,0-.882-.589,1.1,1.1,0,0,0-.981.543h-.02l-.031-.471h-.693c.019.275.026.582.026.947Zm6.355,0v-3.184h-.81v3.184Zm-.4-4.511a.429.429,0,0,0-.452.437.452.452,0,0,0,.9,0A.429.429,0,0,0,2932.463,3122.353Zm3.5,3.817a1.584,1.584,0,0,1-.634.125,1.031,1.031,0,0,1,0-2.059,1.411,1.411,0,0,1,.608.125l.143-.6a1.991,1.991,0,0,0-.777-.15,1.647,1.647,0,0,0-1.773,1.7,1.53,1.53,0,0,0,1.642,1.622,2.34,2.34,0,0,0,.9-.163l-.111-.595Zm.51.536a2.053,2.053,0,0,0,.967.222c.843,0,1.3-.419,1.3-.993-.008-.471-.276-.765-.851-.975-.406-.143-.556-.241-.556-.443s.157-.333.445-.333a1.428,1.428,0,0,1,.672.182l.158-.569a1.9,1.9,0,0,0-.843-.189,1.066,1.066,0,0,0-1.2,1c-.007.372.254.711.876.928.391.138.522.249.522.464s-.157.354-.509.354a1.784,1.784,0,0,1-.818-.23Zm4.1-.065a2.321,2.321,0,0,0,1.19.294c1.053,0,1.655-.568,1.655-1.288a1.073,1.073,0,0,0-.936-1.06v-.013a1.038,1.038,0,0,0,.786-.993c0-.556-.452-1.04-1.329-1.04a2.284,2.284,0,0,0-1.222.328l.183.58a1.72,1.72,0,0,1,.869-.267c.464,0,.681.241.681.53,0,.424-.471.6-.844.6h-.361v.587h.375c.489,0,.959.216.959.719.008.334-.241.681-.856.681a2.09,2.09,0,0,1-.967-.262l-.184.608Zm6.106-4.086a2.5,2.5,0,0,0-.405.012,2.446,2.446,0,0,0-1.509.628,2.6,2.6,0,0,0-.739,1.909,1.62,1.62,0,0,0,1.6,1.831,1.476,1.476,0,0,0,1.5-1.517,1.281,1.281,0,0,0-1.3-1.387,1.222,1.222,0,0,0-.955.413h-.021a1.51,1.51,0,0,1,1.425-1.244,3.538,3.538,0,0,1,.413-.018l-.007-.628Zm-1.058,3.778c-.518,0-.786-.458-.8-1.019a.543.543,0,0,1,.054-.256.78.78,0,0,1,.691-.437.745.745,0,0,1,.739.843C2946.309,3125.974,2946.04,3126.334,2945.624,3126.334Zm4.681-3.719h-2.2l-.28,2.144a3.734,3.734,0,0,1,.582-.039c.849,0,1.208.32,1.208.8a.829.829,0,0,1-.921.779,2.161,2.161,0,0,1-.936-.222l-.163.607a2.449,2.449,0,0,0,1.125.248,1.554,1.554,0,0,0,1.72-1.471,1.219,1.219,0,0,0-.556-1.079,1.894,1.894,0,0,0-1.032-.274,2.066,2.066,0,0,0-.308.019l.125-.849h1.634v-.667Zm2.445-.654v6.539h.582v-6.539Zm2.967,4.9h.8V3125.2a2.169,2.169,0,0,0,.393.026,1.943,1.943,0,0,0,1.392-.471,1.336,1.336,0,0,0,.38-1,1.243,1.243,0,0,0-.432-.974,2,2,0,0,0-1.3-.359,7.064,7.064,0,0,0-1.23.09Zm.8-3.787a2.29,2.29,0,0,1,.463-.039c.556,0,.9.262.9.753,0,.517-.367.81-.967.81a1.64,1.64,0,0,1-.393-.031Zm4.1.53a1.573,1.573,0,0,0-1.647,1.687,1.54,1.54,0,0,0,1.6,1.642,1.576,1.576,0,0,0,1.634-1.693A1.528,1.528,0,0,0,2960.619,3123.608Zm-.018.589c.549,0,.771.569.771,1.065,0,.64-.32,1.092-.778,1.092-.489,0-.79-.465-.79-1.079,0-.53.228-1.079.8-1.079Zm1.87-.517.941,3.184h.753l.406-1.3a8.191,8.191,0,0,0,.241-1.019h.014a9.574,9.574,0,0,0,.242,1.019l.38,1.3h.745l1-3.184h-.789l-.354,1.412c-.085.372-.158.719-.209,1.065h-.013c-.073-.347-.158-.693-.254-1.065l-.4-1.412h-.652l-.413,1.451c-.091.328-.194.68-.261,1.026h-.013c-.06-.347-.13-.693-.2-1.032l-.333-1.445Zm7.853,1.818a2,2,0,0,0,.026-.341,1.385,1.385,0,0,0-1.374-1.549,1.577,1.577,0,0,0-1.556,1.712,1.507,1.507,0,0,0,1.642,1.609,2.991,2.991,0,0,0,1.112-.2l-.118-.554a2.406,2.406,0,0,1-.882.143.864.864,0,0,1-.98-.823Zm-2.131-.563a.786.786,0,0,1,.738-.779.686.686,0,0,1,.662.779Zm2.8,1.929h.8v-1.647a1.43,1.43,0,0,1,.026-.249.71.71,0,0,1,.719-.608,1.134,1.134,0,0,1,.235.026v-.758a.833.833,0,0,0-.189-.021.952.952,0,0,0-.871.68h-.026l-.026-.607h-.7c.019.287.026.594.026,1.026Zm3.712,0h.8V3125.2a2.175,2.175,0,0,0,.393.026,1.943,1.943,0,0,0,1.392-.471,1.338,1.338,0,0,0,.38-1,1.243,1.243,0,0,0-.432-.974,2,2,0,0,0-1.3-.359,7.081,7.081,0,0,0-1.231.09Zm.8-3.787a2.3,2.3,0,0,1,.464-.039c.556,0,.9.262.9.753,0,.517-.367.81-.967.81a1.65,1.65,0,0,1-.393-.031Zm2.805,3.787h.809v-4.643h-.809Zm4.2,0a4.98,4.98,0,0,1-.046-.765v-1.151a1.19,1.19,0,0,0-1.314-1.34,2.293,2.293,0,0,0-1.151.282l.158.522a1.687,1.687,0,0,1,.856-.235c.563,0,.646.346.646.556v.052c-1.177-.006-1.888.4-1.888,1.2a.946.946,0,0,0,1,.949,1.179,1.179,0,0,0,.941-.426h.018l.052.354h.727Zm-.83-1.118a.631.631,0,0,1-.026.176.654.654,0,0,1-.628.437.422.422,0,0,1-.458-.458c0-.483.543-.607,1.112-.6Zm1.771-2.785v.719h-.458v.6h.458v1.5a1.266,1.266,0,0,0,.249.89.932.932,0,0,0,.693.261,1.755,1.755,0,0,0,.582-.078l-.013-.615a1.156,1.156,0,0,1-.313.039c-.308,0-.413-.2-.413-.587v-1.4H2985v-.6h-.765v-.909Zm3.053,3.9v-2.582h.693v-.6h-.7v-.164c0-.393.137-.727.535-.727a.914.914,0,0,1,.339.059l.059-.621a1.53,1.53,0,0,0-.517-.08,1.219,1.219,0,0,0-.831.308,1.492,1.492,0,0,0-.385,1.086v.137h-.432v.6h.432v2.582h.8Zm2.562-3.256a1.572,1.572,0,0,0-1.647,1.687,1.539,1.539,0,0,0,1.6,1.642,1.576,1.576,0,0,0,1.635-1.693A1.528,1.528,0,0,0,2989.065,3123.608Zm-.019.589c.549,0,.771.569.771,1.065,0,.64-.32,1.092-.778,1.092-.49,0-.79-.465-.79-1.079,0-.53.228-1.079.8-1.079Zm2.263,2.667h.8v-1.647a1.384,1.384,0,0,1,.026-.249.709.709,0,0,1,.719-.608,1.132,1.132,0,0,1,.235.026v-.758a.825.825,0,0,0-.188-.021.952.952,0,0,0-.871.68h-.026l-.026-.607h-.7c.019.287.026.594.026,1.026Zm2.328,0h.784v-1.883a.689.689,0,0,1,.046-.261.629.629,0,0,1,.575-.458c.372,0,.55.313.55.758v1.844h.784v-1.909a1.219,1.219,0,0,1,.039-.269.613.613,0,0,1,.563-.424c.385,0,.567.313.567.843v1.759h.786v-1.876c0-1.021-.536-1.38-1.065-1.38a1.066,1.066,0,0,0-.642.189,1.208,1.208,0,0,0-.392.4h-.014a.916.916,0,0,0-.882-.589,1.1,1.1,0,0,0-.98.543h-.02l-.032-.471h-.693c.019.275.025.582.025.947Zm7.036-4.9v6.539h.582v-6.539Zm5.251,3.654.4,1.25h.864l-1.433-4.407h-1.027l-1.412,4.407h.83l.38-1.25Zm-1.271-.607.341-1.086c.078-.261.143-.567.209-.823h.013c.064.256.137.556.223.823l.346,1.086Zm2.813,1.856h2.686v-.641h-1.68v-.013c.163-.171.313-.353.471-.543l1.169-1.5v-.491h-2.53v.641h1.549v.013c-.17.184-.308.339-.471.536l-1.2,1.531Zm6.094-3.184h-.8v1.921a.739.739,0,0,1-.046.249.675.675,0,0,1-.614.431c-.426,0-.595-.339-.595-.869v-1.732h-.8v1.87c0,1.04.53,1.386,1.112,1.386a1.155,1.155,0,0,0,1.019-.556h.013l.039.483h.707c-.013-.261-.026-.574-.026-.954Zm.869,3.184h.8v-1.647a1.419,1.419,0,0,1,.026-.248.709.709,0,0,1,.719-.608,1.1,1.1,0,0,1,.235.026v-.758a.829.829,0,0,0-.188-.021.953.953,0,0,0-.872.68h-.026l-.026-.607h-.7c.019.287.026.595.026,1.026Zm4.97-1.366a2.115,2.115,0,0,0,.025-.341,1.386,1.386,0,0,0-1.374-1.549,1.578,1.578,0,0,0-1.557,1.712,1.507,1.507,0,0,0,1.642,1.609,2.994,2.994,0,0,0,1.112-.2l-.119-.554a2.394,2.394,0,0,1-.882.143.864.864,0,0,1-.98-.823Zm-2.132-.563a.786.786,0,0,1,.737-.779.686.686,0,0,1,.662.779Z" transform="translate(-2861.418 -3068.077)" fill="#fff"/>
  </g>
</svg>
